{"glyphs":{"0":{"ha":1004,"x_min":-35,"x_max":1051,"o":"m 297 831 q 299 811 301 825 q 294 792 297 797 q 296 810 294 800 q 297 831 297 819 m 290 831 q 288 811 289 822 q 283 792 286 800 q 285 811 283 800 q 290 831 288 822 m 278 831 q 277 814 278 824 q 276 796 276 804 q 274 793 276 793 q 268 793 271 793 q 273 812 271 801 q 278 831 275 822 m 267 831 q 266 811 268 824 q 257 792 264 799 l 257 801 q 267 831 257 815 m 256 831 q 253 811 256 822 q 246 792 251 800 l 246 807 q 256 831 246 821 m 1051 549 q 1042 538 1049 544 q 1029 525 1035 532 q 1023 510 1024 518 q 1032 496 1022 503 l 953 496 q 954 480 954 489 q 953 447 954 471 l 1043 447 q 1044 442 1043 444 q 1046 438 1046 440 q 1042 435 1044 436 q 1030 434 1039 435 q 1002 433 1021 433 q 951 433 983 433 q 942 374 947 404 q 932 318 938 344 q 872 153 915 217 q 772 52 829 89 q 646 2 714 15 q 510 -11 578 -11 q 427 -6 472 -11 q 337 15 382 0 q 249 58 292 31 q 174 128 207 85 l 217 128 l 221 131 q 222 146 222 138 q 222 170 222 154 q 220 213 221 186 q 218 285 219 240 q 217 376 217 347 q 214 417 217 404 q 213 386 213 410 q 215 336 214 363 q 217 289 215 310 q 218 265 218 268 l 218 189 l 132 189 q 91 307 104 246 q 74 414 78 368 q 35 419 58 419 q 28 451 32 435 q 21 483 25 467 q 18 472 15 483 l 1 472 q -7 494 -3 482 q -12 517 -11 506 q -22 518 -15 517 q -35 526 -29 519 q -28 530 -32 529 q -22 532 -25 531 q -19 533 -21 532 q -8 533 -17 533 q 17 533 0 533 q 61 533 33 533 q 65 541 64 536 q 65 550 65 546 l 210 550 q 211 533 207 539 q 213 571 214 553 q 210 608 213 589 l 65 622 l 65 632 q 67 650 65 635 q 70 687 68 665 q 76 731 72 708 q 82 772 79 754 l 356 772 l 357 774 l 357 804 q 349 811 354 810 q 338 813 344 813 q 325 811 332 813 q 313 811 318 810 l 313 847 l 118 847 q 111 813 114 831 q 104 775 108 794 l 82 775 q 92 820 86 794 q 106 865 99 846 q 180 996 132 946 q 285 1072 228 1046 q 403 1108 343 1099 q 518 1117 464 1117 q 654 1102 588 1117 q 777 1049 721 1088 q 874 944 833 1010 q 932 775 915 878 l 638 775 q 593 877 626 838 q 507 917 560 917 q 490 915 501 917 q 469 910 478 914 q 456 903 464 907 q 440 894 447 900 q 431 885 438 893 q 416 868 424 878 q 402 849 408 858 q 396 833 396 839 q 399 828 396 828 q 403 826 401 829 q 405 811 404 819 q 406 796 406 803 q 408 762 407 779 q 413 725 410 744 l 415 726 q 422 727 418 726 q 432 728 425 728 q 440 644 436 694 l 424 644 q 420 646 418 644 q 419 650 422 647 q 418 639 418 649 q 419 629 418 629 q 438 625 428 626 q 456 621 447 624 q 463 617 460 621 q 472 614 467 614 l 651 614 l 651 683 l 740 683 l 740 694 l 647 694 q 648 713 649 701 q 646 739 647 725 l 760 739 q 781 694 768 714 l 949 694 q 953 636 951 665 q 954 578 954 607 q 976 572 964 571 q 1001 572 989 572 q 1026 569 1014 572 q 1051 549 1039 565 m 239 831 q 243 813 246 825 q 236 792 240 800 q 239 815 239 807 q 239 831 239 824 m 232 831 q 229 811 231 822 q 225 792 228 800 q 227 811 225 800 q 232 831 229 822 m 219 831 q 219 814 219 824 q 218 796 218 804 q 215 793 218 793 q 210 793 213 793 q 215 812 213 801 q 219 831 217 822 m 208 831 q 208 811 210 824 q 199 792 206 799 l 199 801 q 202 815 199 807 q 208 831 206 824 m 197 831 q 195 811 197 822 q 188 792 193 800 l 188 804 q 190 818 188 810 q 197 831 193 826 m 181 831 q 185 813 188 825 q 178 792 182 800 q 181 815 181 807 q 181 831 181 824 m 174 831 q 171 811 172 822 q 167 792 169 800 q 169 811 167 800 q 174 831 171 822 m 161 831 q 160 814 161 824 q 160 796 160 804 q 157 793 160 793 q 151 793 154 793 q 156 812 154 801 q 161 831 158 822 m 150 831 q 149 811 151 824 q 140 792 147 799 l 140 801 q 144 815 140 807 q 150 831 147 824 m 139 831 q 137 811 139 822 q 129 792 135 800 l 129 804 q 133 818 129 810 q 139 831 136 826 m 646 594 l 629 594 q 622 573 625 583 q 615 553 618 563 l 632 553 q 646 594 642 576 m 615 594 l 599 594 q 593 573 596 583 q 588 553 590 563 l 604 553 q 610 572 607 561 q 615 594 613 582 m 588 594 l 571 594 q 564 572 567 583 q 557 553 561 560 l 574 553 q 588 594 583 576 m 560 594 l 543 594 q 535 573 539 583 q 529 553 532 563 l 546 553 q 553 575 550 564 q 560 594 556 586 m 417 692 l 417 717 l 411 717 l 411 692 l 417 692 m 529 594 l 513 594 q 499 553 508 575 l 518 553 q 524 575 521 564 q 529 594 526 586 m 419 656 l 419 683 l 414 683 l 414 656 l 419 656 m 501 594 l 485 594 q 478 579 482 588 q 474 565 474 571 l 474 553 l 488 553 q 501 594 497 576 m 382 583 q 378 590 382 589 q 372 592 375 592 l 365 585 l 365 553 q 377 569 372 560 q 382 583 382 578 m 385 499 l 385 504 l 365 504 l 365 499 l 385 499 m 654 465 l 654 533 l 476 533 q 479 490 481 510 q 481 456 478 471 l 478 453 q 437 453 451 453 q 415 453 422 453 q 405 453 407 453 q 401 456 403 454 q 399 472 401 464 q 394 486 397 479 q 380 483 388 483 q 365 483 372 483 q 372 407 368 446 q 383 331 376 368 q 392 391 388 360 q 404 444 397 422 l 482 444 l 482 426 q 481 407 482 424 q 477 367 479 390 q 473 319 475 344 q 469 276 471 294 q 460 272 468 274 q 442 267 451 269 q 426 262 433 265 q 418 253 418 258 q 431 227 418 238 q 458 210 443 217 q 489 200 474 203 q 508 197 504 197 q 581 222 554 197 q 622 282 607 247 q 641 353 636 317 q 649 415 646 390 q 652 443 650 426 q 654 465 654 460 m 389 425 l 383 425 l 383 481 l 389 481 l 389 425 z "},"1":{"ha":696,"x_min":46,"x_max":667,"o":"m 667 440 q 602 440 625 440 q 568 439 579 439 q 554 439 557 439 q 550 440 551 439 l 550 357 q 592 357 571 354 l 592 326 q 583 326 588 326 q 572 324 578 326 q 583 319 578 319 q 592 319 588 319 q 600 300 588 307 q 619 283 613 293 q 622 289 622 286 q 621 294 621 292 q 631 286 625 290 q 639 278 636 282 l 639 38 q 629 46 635 42 q 621 54 624 50 l 621 154 q 608 165 614 158 q 594 176 601 172 l 594 1 l 288 1 l 288 319 l 356 319 q 357 311 356 313 q 360 319 360 314 l 535 322 l 533 324 q 528 326 533 324 l 357 326 q 354 333 357 331 q 353 326 353 332 l 288 326 l 288 383 q 313 381 300 381 q 342 383 326 381 q 288 385 318 389 l 288 435 q 289 451 288 438 q 292 482 290 465 q 296 513 294 499 q 297 531 297 528 q 294 546 297 536 q 286 563 290 556 l 285 726 q 219 683 242 694 q 178 666 196 671 q 138 658 160 661 q 75 640 117 654 l 65 640 l 65 786 q 76 769 69 778 q 89 753 82 761 l 122 778 q 107 797 115 786 q 90 817 99 807 q 75 833 82 826 q 65 839 68 839 q 58 837 63 839 q 46 835 53 835 q 94 880 75 860 q 131 921 113 900 q 174 965 150 942 q 235 1018 197 988 q 248 1023 239 1022 q 265 1029 257 1024 q 290 1044 276 1036 q 315 1063 304 1051 q 329 1083 322 1069 q 343 1107 336 1096 q 362 1108 350 1111 q 382 1117 374 1106 q 387 1113 385 1114 q 392 1108 389 1111 l 592 1108 l 592 1035 q 604 1020 592 1029 q 628 1000 617 1011 l 628 774 q 592 751 608 764 l 592 525 l 656 525 q 653 508 656 517 q 651 492 650 500 q 667 440 653 467 m 519 1011 q 515 1023 519 1014 q 502 1044 510 1032 q 486 1069 494 1057 q 472 1092 478 1082 q 457 1089 464 1089 q 442 1088 450 1089 q 424 1085 433 1088 q 403 1072 415 1082 q 422 1049 411 1061 q 440 1028 433 1038 q 455 1040 447 1032 q 468 1047 463 1047 q 473 1047 474 1047 q 475 1043 472 1046 l 190 788 l 433 935 q 431 943 432 939 q 428 949 431 947 q 444 958 429 950 q 475 977 458 967 q 506 997 492 988 q 519 1011 519 1007 m 619 242 q 608 257 615 249 q 593 269 600 265 q 605 254 597 261 q 619 242 613 247 m 525 357 l 525 444 l 521 442 q 497 440 504 436 q 482 444 489 444 l 347 444 q 372 441 358 442 q 399 442 386 440 l 399 425 l 351 425 q 359 391 356 408 q 365 357 363 374 l 525 357 m 619 193 l 619 203 q 593 225 606 217 l 593 213 q 606 203 600 208 q 619 193 613 197 m 564 250 l 564 254 l 546 257 l 546 253 l 564 250 m 346 371 l 346 381 l 342 381 l 342 371 l 346 371 m 349 360 l 349 369 l 344 369 l 344 360 l 349 360 m 536 257 l 369 257 q 460 253 428 254 q 510 253 493 253 q 531 254 526 253 q 536 257 535 256 m 351 349 l 351 356 l 347 356 l 347 349 l 351 349 m 354 335 l 354 344 l 350 344 l 350 335 l 354 335 m 363 299 l 363 308 l 358 308 l 358 299 l 363 299 m 365 288 l 365 294 l 361 294 l 361 288 l 365 288 m 368 274 l 368 283 l 364 283 l 364 274 l 368 274 m 371 263 l 371 272 l 367 272 l 367 263 l 371 263 z "},"2":{"ha":1017,"x_min":-10,"x_max":953,"o":"m 690 897 l 683 890 l 681 893 l 688 900 l 690 897 m 679 867 l 672 860 l 669 863 l 676 869 l 679 867 m 643 842 l 636 835 l 633 838 l 640 844 l 643 842 m 506 817 l 485 817 l 485 826 l 503 826 q 504 822 503 824 q 506 817 506 819 m 783 333 l 763 333 l 763 343 l 781 343 q 782 338 781 340 q 783 333 783 336 m 953 -3 l 771 -3 q 782 12 778 4 q 792 26 786 19 l 664 136 l 553 -3 l 185 -3 q 259 88 219 39 q 340 186 299 136 q 420 284 381 236 q 496 374 460 332 q 514 378 499 378 q 525 378 519 378 q 535 375 531 378 q 524 385 532 388 q 504 383 515 382 l 708 660 l 639 724 q 641 742 639 733 q 644 760 643 750 q 642 791 646 772 q 639 815 639 810 q 647 828 639 818 q 667 853 656 839 q 692 882 679 867 q 714 910 704 897 q 707 917 713 913 l 699 911 q 708 926 703 918 q 719 940 713 933 l 715 944 l 626 844 q 572 888 594 879 q 515 897 550 897 q 489 896 501 897 q 463 890 476 894 q 435 874 449 885 q 406 843 421 863 q 437 839 418 840 q 472 835 456 838 q 475 814 472 828 q 432 813 454 814 q 389 808 410 811 q 404 805 396 806 q 436 807 413 804 q 438 801 436 804 q 439 794 439 797 q 413 793 426 794 q 386 790 399 792 q 380 778 382 785 q 375 763 378 771 l 375 740 q 384 736 381 738 q 389 731 388 735 q 373 728 382 728 q 356 725 364 728 l 60 728 q 53 759 57 743 q 46 792 50 775 q 42 781 42 792 l 26 781 q 17 801 22 789 q 13 825 13 813 q 3 826 10 825 q -10 835 -4 828 q -1 837 0 836 q 0 839 -3 838 q 19 841 3 840 q 82 842 36 842 q 89 854 88 847 q 160 990 113 940 q 267 1066 208 1040 q 390 1099 326 1092 q 508 1106 454 1106 q 615 1101 558 1106 q 725 1081 671 1097 q 828 1029 779 1064 q 910 935 876 994 q 938 863 928 903 q 947 789 947 824 q 925 669 947 725 q 860 560 903 613 q 757 459 818 508 q 619 360 696 410 l 750 351 q 751 342 750 349 q 753 328 753 335 l 636 328 q 630 318 631 324 q 631 306 629 313 q 634 294 632 300 q 636 283 636 288 q 614 279 625 286 l 635 278 l 640 279 q 639 299 640 289 q 635 321 638 310 q 663 321 647 321 q 714 324 679 321 q 715 317 714 321 q 717 311 717 314 q 682 310 700 311 q 647 308 664 308 q 646 293 643 300 q 652 281 649 286 q 657 269 656 275 q 653 257 658 263 q 663 251 660 253 q 669 243 667 250 l 953 243 l 953 -3 m 511 529 l 393 383 l 460 469 l 456 469 q 421 428 438 450 q 385 383 404 407 q 445 461 414 421 q 511 529 476 501 m 435 458 l 375 382 l 372 385 l 431 461 l 435 458 m 385 403 l 367 382 l 364 385 l 381 406 l 385 403 m 394 376 l 328 289 q 342 274 328 278 q 367 263 356 269 l 169 -3 l 46 -3 q 89 153 60 76 q 179 303 118 229 q 207 289 193 292 q 215 298 210 293 q 225 310 219 303 l 225 311 q 224 315 225 314 q 249 303 239 314 q 271 286 260 293 q 286 299 278 292 q 294 311 294 306 q 292 325 294 317 q 290 342 290 333 q 281 343 288 342 q 268 351 274 344 q 303 356 283 356 q 340 358 324 356 q 350 365 346 360 q 360 375 354 371 q 356 361 356 372 q 363 369 360 364 q 369 378 367 374 q 360 365 365 368 q 361 356 356 363 q 368 364 364 358 q 379 376 372 369 q 367 353 371 368 q 380 363 374 357 q 394 376 386 369 m 538 361 l 538 368 l 533 368 l 533 361 l 538 361 m 611 279 l 601 279 q 608 258 601 268 q 610 269 611 263 q 611 279 608 275 z "},"3":{"ha":992,"x_min":63,"x_max":1082,"o":"m 213 206 l 101 206 l 101 188 l 211 188 l 211 40 q 155 90 178 64 q 115 144 132 117 q 86 201 99 172 q 63 260 74 231 l 63 275 q 81 271 68 268 q 101 275 93 274 l 101 239 l 126 239 l 126 278 q 127 258 128 271 q 133 239 126 246 q 138 257 140 246 q 139 278 136 268 q 139 259 139 269 q 142 239 139 249 q 144 256 144 247 q 144 275 144 264 q 144 258 144 267 q 147 239 144 249 q 149 260 150 250 q 146 281 149 269 l 160 281 l 160 240 q 213 240 186 238 l 213 206 m 560 1086 l 490 1086 l 490 1090 l 560 1090 l 560 1086 m 1082 601 l 1001 601 l 1001 629 l 817 629 q 786 606 801 617 q 754 582 771 596 l 1082 582 l 1082 571 l 890 571 l 888 521 q 881 528 888 528 q 876 522 874 528 q 849 521 864 521 q 818 518 835 521 q 820 515 821 515 q 822 511 819 514 q 828 512 825 511 q 831 515 831 513 q 831 512 831 513 q 836 511 831 511 q 842 513 842 511 q 842 517 842 514 q 860 511 844 511 q 886 514 875 511 q 888 499 889 508 q 886 481 886 489 q 887 490 886 483 q 881 503 888 497 q 874 492 871 497 q 875 481 878 488 q 876 490 875 483 q 869 503 876 497 q 864 492 863 493 q 864 483 865 490 q 865 493 863 490 q 858 503 867 496 q 853 492 851 493 q 853 483 854 490 q 853 493 851 490 q 847 503 856 496 q 842 492 840 493 q 842 483 843 490 q 842 493 840 490 q 836 503 844 496 q 831 492 831 494 q 831 488 831 490 q 831 495 829 492 q 825 503 832 499 q 820 476 815 492 q 825 447 825 460 l 828 444 q 833 458 835 447 q 833 472 832 468 q 834 460 833 469 q 839 444 835 451 q 844 458 846 447 q 844 472 843 468 q 845 460 844 469 q 850 444 846 451 q 855 456 857 450 q 856 469 853 463 q 856 456 857 463 q 861 444 854 449 q 866 456 868 450 q 867 469 864 463 q 867 456 868 463 q 872 444 865 449 q 877 456 879 450 q 878 469 875 463 q 878 456 879 463 q 883 444 876 449 q 890 456 892 451 q 889 467 888 460 q 888 456 889 464 q 894 444 888 449 q 901 456 903 451 q 900 467 899 460 q 899 456 900 464 q 906 444 899 449 q 910 460 913 451 q 910 478 908 469 q 931 458 922 475 q 946 428 939 440 l 946 418 l 632 418 l 632 446 l 804 446 l 804 503 l 625 503 l 619 501 q 617 465 618 483 q 625 444 615 447 l 625 421 q 602 441 614 432 q 581 457 590 450 q 581 481 578 467 q 575 503 583 496 q 569 481 567 496 q 565 463 571 467 l 565 504 l 553 504 q 553 468 549 486 l 539 468 q 539 504 542 486 l 514 504 q 514 471 511 488 l 501 471 l 501 503 l 374 503 l 374 514 q 443 512 418 513 q 481 511 468 511 q 497 512 493 511 q 501 514 500 513 q 502 517 501 517 q 500 521 503 518 l 418 521 q 400 529 414 532 q 374 529 386 526 l 374 581 q 397 579 383 578 q 422 581 410 581 l 424 583 l 424 601 q 418 604 421 604 q 413 604 415 604 l 413 661 q 425 664 418 661 q 438 667 432 667 q 452 665 442 667 q 468 664 463 664 q 520 673 494 664 q 565 699 546 682 q 597 742 585 717 q 607 803 608 768 l 628 803 l 628 656 l 631 653 l 631 808 l 801 808 l 632 808 l 632 1010 q 628 1011 629 1010 q 622 1013 626 1013 l 619 1010 q 624 990 621 1003 q 626 972 626 978 l 626 810 l 607 810 q 569 880 600 860 q 496 900 539 900 q 451 892 474 900 q 396 854 429 883 q 382 853 393 853 q 360 851 371 854 l 360 822 q 369 819 363 819 q 379 819 375 819 q 376 810 376 817 l 235 804 l 374 804 q 368 781 371 793 q 365 757 365 768 l 229 782 l 229 974 q 234 999 229 979 q 242 1033 239 1018 q 255 1042 247 1038 q 271 1050 263 1046 q 265 1052 268 1053 q 257 1051 261 1051 l 257 1117 l 294 1117 q 292 1083 293 1100 q 294 1050 292 1067 q 300 1079 301 1061 q 297 1113 299 1097 l 293 1117 l 311 1117 q 309 1083 310 1100 q 311 1050 308 1067 q 314 1084 314 1067 q 317 1117 314 1101 q 316 1085 315 1101 q 319 1053 317 1068 q 322 1085 322 1069 q 325 1117 322 1101 l 325 1056 l 331 1050 q 339 1056 336 1050 q 340 1086 340 1071 q 340 1117 340 1101 l 421 1117 q 421 1070 421 1088 q 422 1044 421 1053 q 422 1031 422 1035 q 421 1025 422 1026 l 476 1025 q 480 1040 479 1032 q 482 1053 481 1047 l 490 1053 l 488 1079 l 464 1079 q 461 1066 461 1074 q 463 1051 461 1058 l 426 1051 l 426 1117 l 463 1117 q 461 1105 463 1111 q 460 1093 460 1099 q 463 1084 460 1088 q 475 1081 467 1081 q 516 1082 481 1081 q 603 1081 551 1083 q 603 1114 607 1096 l 642 1114 l 642 1047 l 663 1047 q 665 1061 665 1054 q 665 1075 665 1068 q 713 1060 690 1068 q 759 1042 736 1053 q 804 1015 782 1032 q 847 972 826 999 q 849 981 850 975 q 849 994 849 988 l 869 994 q 868 968 868 982 q 871 942 868 954 q 874 968 874 954 q 871 994 874 982 l 908 994 l 908 900 l 944 900 l 944 986 l 957 986 l 957 807 l 944 807 l 944 893 l 910 893 q 907 841 908 863 q 905 803 906 819 q 902 774 904 786 q 899 749 900 761 q 957 749 925 746 l 957 713 l 883 713 q 824 632 868 676 l 999 632 q 1001 644 1001 636 q 1001 658 1001 651 l 1082 658 l 1082 601 m 911 482 l 906 482 l 906 492 l 911 492 l 911 482 m 900 482 l 894 482 l 894 503 l 900 503 l 900 482 m 214 785 l 79 807 l 79 815 q 94 863 79 832 q 128 924 108 893 q 169 979 147 954 q 204 1010 190 1004 q 214 1017 210 1013 l 214 785 m 963 326 q 960 297 963 322 q 954 251 957 272 l 869 251 q 864 217 865 235 q 846 185 863 200 q 830 179 839 179 q 813 176 821 179 l 813 35 q 743 -1 781 14 q 667 -24 706 -15 q 590 -35 628 -32 q 521 -39 553 -39 l 413 -31 l 607 -31 l 632 139 l 632 213 q 638 228 632 217 q 647 247 644 240 q 656 286 654 265 q 657 311 657 307 q 651 358 657 335 q 638 403 646 381 l 951 403 q 959 358 956 383 q 963 326 963 332 m 340 285 l 243 285 l 246 292 q 290 299 264 296 q 340 306 315 301 l 340 285 m 622 197 q 622 151 624 176 q 616 99 619 125 q 608 50 613 74 q 601 10 604 26 l 374 10 q 369 21 374 17 l 342 21 q 338 1 340 13 q 331 -17 335 -10 q 326 -2 325 -11 q 329 18 326 7 q 319 19 328 19 q 310 17 311 19 q 308 11 308 14 q 303 6 307 8 q 289 3 300 3 q 259 10 275 3 q 228 29 243 18 q 224 52 226 38 q 221 72 221 67 l 221 188 l 365 188 l 365 206 l 224 206 q 226 222 226 214 q 226 236 226 229 q 240 239 232 242 q 240 281 244 260 l 342 281 q 342 236 338 260 l 365 236 l 365 294 q 415 186 378 225 q 514 147 451 147 q 565 156 536 147 q 622 197 594 165 m 665 1013 l 665 1025 l 640 1025 l 640 1013 l 665 1013 m 626 1026 q 625 1040 626 1035 q 624 1047 624 1044 l 613 1047 q 615 1026 613 1032 l 626 1026 m 604 1078 l 563 1078 q 565 1069 565 1074 q 568 1060 565 1064 l 601 1060 l 604 1078 m 799 821 l 799 853 l 746 853 l 746 821 l 799 821 m 818 569 l 799 569 q 806 567 803 569 q 814 564 810 565 l 818 569 m 804 513 l 804 521 l 631 521 l 631 547 q 627 537 628 544 q 625 522 626 529 q 623 517 622 519 q 619 514 624 514 l 804 513 m 633 603 l 628 603 l 625 582 l 631 582 l 633 603 m 633 569 l 628 569 l 625 551 l 631 551 l 633 569 m 336 821 l 336 853 l 331 853 l 331 821 l 336 821 m 325 821 l 325 853 l 319 853 l 319 821 l 325 821 m 313 853 l 296 853 l 296 821 l 310 821 l 313 853 m 288 822 l 288 853 l 235 853 l 235 822 l 288 822 m 565 515 l 551 519 l 551 513 l 565 515 m 540 513 l 540 519 l 513 519 l 513 513 l 540 513 z "},"4":{"ha":1064,"x_min":60,"x_max":1013,"o":"m 774 1114 q 771 1084 772 1099 q 769 1054 769 1069 q 770 1085 769 1069 q 774 1114 771 1101 m 1013 208 l 993 208 q 999 273 996 244 q 1001 307 1001 301 l 1001 444 q 1013 440 1008 444 l 1013 208 m 996 296 q 995 283 996 293 q 992 260 994 274 q 988 233 990 247 q 985 208 986 218 q 926 208 949 208 q 891 207 904 207 q 872 206 878 207 q 865 206 867 206 q 859 206 860 206 q 858 208 858 207 q 858 210 858 208 q 853 217 857 213 l 842 217 q 836 199 838 208 q 835 185 835 190 l 835 172 q 874 174 853 169 l 874 6 l 610 6 l 610 207 l 60 207 l 60 389 l 101 389 l 101 507 q 114 525 101 510 q 144 561 126 540 q 182 605 163 582 q 217 644 201 628 q 231 633 219 644 q 238 636 233 632 q 246 644 242 640 l 110 485 l 114 481 l 371 782 l 367 786 l 321 736 q 342 762 332 749 q 363 788 351 775 q 359 794 363 790 q 351 801 356 797 l 611 1114 l 719 1114 l 719 603 q 724 606 722 606 q 735 606 726 606 l 735 1114 l 736 672 l 758 672 l 758 1111 l 760 675 l 769 675 l 769 676 q 771 679 771 678 q 771 704 771 681 q 772 756 771 728 q 772 808 772 785 q 772 835 772 832 q 775 844 774 839 q 776 854 776 849 l 776 1063 q 778 1076 776 1067 q 781 1096 779 1086 q 783 1100 782 1099 q 786 1104 785 1101 q 788 1135 790 1118 q 800 1158 785 1151 q 805 1146 803 1151 q 808 1133 807 1140 q 810 1113 810 1125 q 811 1089 811 1101 q 813 1067 811 1076 q 818 1056 814 1057 q 822 1072 822 1060 q 815 1086 822 1083 l 815 1114 q 819 1103 818 1110 q 822 1092 819 1097 q 825 1101 825 1096 q 828 1111 825 1107 q 834 1094 831 1103 q 839 1078 838 1085 q 840 1055 842 1067 q 842 1028 839 1043 q 843 1032 843 1029 q 843 1043 843 1035 q 842 1068 843 1051 q 840 1114 842 1085 l 874 1114 l 874 1025 q 895 1024 883 1024 q 918 1026 907 1024 l 918 446 l 996 446 l 996 296 m 321 732 l 293 700 l 289 701 l 318 733 l 321 732 m 290 694 l 278 682 l 276 685 l 288 697 l 290 694 m 276 678 l 261 663 l 260 665 l 274 681 l 276 678 m 260 658 l 247 646 l 246 649 l 257 661 l 260 658 m 76 390 l 60 390 l 60 396 l 76 396 l 76 390 m 840 289 l 840 317 q 824 316 832 317 q 808 318 815 315 l 808 1022 q 804 1013 807 1017 q 801 1004 801 1010 l 801 326 q 797 314 801 318 l 785 317 l 785 289 q 801 286 796 289 l 801 204 q 795 200 797 200 q 789 200 793 200 q 778 205 781 200 q 775 217 775 210 q 776 231 775 224 q 774 246 776 239 l 775 475 q 765 451 771 464 q 760 435 760 439 l 760 142 q 767 172 769 153 q 769 203 764 190 q 772 188 772 196 q 771 172 772 179 q 787 172 779 172 q 801 169 794 172 l 801 100 l 810 100 l 810 172 l 829 172 l 829 217 q 819 203 822 213 l 811 204 l 811 289 l 840 289 m 789 458 l 789 499 l 783 499 l 783 458 l 789 458 m 699 447 l 699 464 q 649 465 665 464 q 624 465 632 465 q 615 465 617 465 q 610 464 613 465 l 610 554 q 613 570 610 557 q 619 600 615 583 q 628 635 624 617 q 638 667 633 654 q 647 681 640 674 q 660 692 654 689 l 660 794 q 656 793 657 794 q 650 792 656 792 q 643 801 644 792 q 639 814 642 810 q 607 811 613 810 q 606 792 607 803 q 600 774 606 781 q 465 610 533 690 q 326 453 396 531 q 318 451 324 450 q 313 449 313 453 l 313 432 q 315 424 313 425 q 322 423 318 424 q 329 419 326 422 q 332 403 332 415 q 363 400 344 403 q 386 397 381 397 q 408 406 390 397 q 436 418 425 415 q 476 427 454 422 q 518 435 499 432 q 552 440 538 438 q 569 442 567 442 q 579 439 576 442 q 583 404 576 424 q 592 369 589 385 q 593 413 593 389 q 603 443 593 438 q 649 447 624 446 q 699 447 675 447 m 756 142 l 756 414 q 750 385 753 401 q 744 355 747 369 q 740 329 742 340 q 738 315 738 318 l 738 142 l 756 142 m 733 142 l 733 267 l 724 142 l 733 142 m 379 774 l 375 778 l 118 476 l 122 472 l 379 774 z "},"5":{"ha":992,"x_min":38,"x_max":926,"o":"m 475 -10 q 433 -8 443 -7 q 418 -10 422 -8 l 418 114 l 428 114 q 433 97 428 101 q 446 93 439 93 q 461 94 453 93 q 475 93 469 94 l 475 -10 m 872 1000 q 865 1010 869 1004 q 857 1024 861 1017 l 872 1024 l 872 1000 m 867 889 l 689 889 q 688 875 686 883 q 689 858 689 867 l 649 858 q 645 872 646 865 q 642 886 644 879 q 639 864 636 878 q 635 886 639 874 l 581 886 q 579 872 578 879 q 581 856 581 864 l 568 856 l 568 883 q 551 886 561 886 q 532 888 540 886 q 531 892 532 889 q 525 894 531 894 q 518 894 524 894 q 519 888 513 894 q 515 889 517 886 q 507 893 513 892 q 486 895 500 896 q 460 894 472 894 q 463 903 460 899 q 467 913 465 908 q 467 942 468 926 q 468 971 465 957 q 477 994 471 982 q 490 1017 483 1006 l 650 1017 q 663 994 658 996 q 690 992 668 992 q 708 992 703 992 q 717 994 714 992 q 721 1001 719 996 q 726 1017 722 1006 l 797 1017 q 804 1006 799 1008 q 817 1002 810 1003 q 833 1002 825 1001 q 847 1001 842 1003 q 860 986 851 996 q 867 971 868 976 l 867 889 m 632 861 l 628 861 l 628 883 l 632 883 l 632 861 m 624 858 l 619 858 l 619 881 l 624 881 l 624 858 m 615 856 l 611 856 l 611 881 l 615 881 l 615 856 m 607 856 l 603 856 l 603 878 l 607 878 l 607 856 m 599 856 l 594 856 l 594 875 l 599 875 l 599 856 m 590 856 l 586 856 l 586 875 l 590 875 l 590 856 m 819 647 l 729 647 q 725 675 726 660 q 721 711 724 690 q 744 700 731 707 q 772 684 757 693 q 799 665 786 675 q 819 647 811 656 m 885 547 l 881 547 l 881 564 l 885 564 l 885 547 m 869 549 l 740 549 q 735 590 738 568 q 729 633 733 611 l 839 633 q 858 612 846 625 q 869 593 871 599 l 869 549 m 926 433 l 922 433 l 922 453 l 926 453 l 926 433 m 213 1096 q 203 1092 206 1094 q 182 1096 200 1090 l 213 1096 m 422 811 l 413 811 l 413 853 q 396 856 407 856 l 396 883 l 422 883 l 422 811 m 163 1089 l 158 1089 l 158 1097 l 163 1097 l 163 1089 m 911 265 q 903 242 913 260 q 888 211 894 224 l 888 332 q 889 335 888 338 q 892 335 890 332 q 893 353 892 342 q 888 374 894 364 l 911 374 q 905 352 906 368 q 911 332 904 336 l 911 265 m 525 644 l 471 644 q 460 671 460 663 q 460 689 460 679 q 463 715 460 707 q 475 728 467 724 q 496 734 483 732 q 525 739 508 736 l 525 644 m 807 364 l 803 364 l 803 375 l 807 375 l 807 364 m 883 199 q 879 188 885 193 q 871 178 874 182 l 871 344 l 883 344 l 883 199 m 867 175 l 801 175 l 801 197 l 824 197 q 833 284 832 238 q 835 375 835 331 l 853 375 l 853 346 q 859 344 856 343 q 867 344 863 344 l 867 175 m 799 225 l 794 225 l 794 342 l 799 342 l 799 225 m 790 175 l 608 175 q 600 163 604 171 q 615 160 607 160 q 629 161 624 161 q 653 163 646 161 q 664 166 660 164 q 674 170 668 168 q 697 172 681 172 q 710 172 700 172 q 734 171 721 171 q 763 171 747 171 q 789 171 778 171 l 789 88 q 778 72 789 81 q 754 54 768 63 q 728 40 740 46 q 715 33 717 33 q 710 79 713 57 q 704 125 708 101 l 694 125 q 696 77 694 101 q 700 25 697 53 q 694 73 697 49 q 690 122 690 97 l 675 125 q 676 101 675 114 q 680 75 678 88 q 683 53 682 63 q 683 40 683 43 l 683 19 q 656 12 675 17 q 615 1 638 7 q 568 -8 592 -4 q 526 -11 544 -11 l 482 -11 l 482 93 q 497 94 488 96 q 517 93 507 93 q 534 97 526 93 q 543 114 542 100 l 586 114 q 599 79 593 97 q 614 44 606 61 l 672 44 l 676 46 q 675 85 676 65 q 672 124 674 104 l 482 124 l 482 172 q 558 197 529 176 q 601 244 586 217 q 622 304 617 272 q 626 365 626 336 q 624 413 626 386 q 611 464 621 439 q 583 510 601 489 q 532 542 564 531 l 532 633 q 541 633 535 633 q 553 632 547 632 q 564 635 560 632 q 568 647 568 639 q 556 651 561 650 q 544 644 551 651 l 532 644 l 532 739 l 610 739 q 624 737 613 739 q 649 731 635 735 q 680 724 664 728 q 708 715 696 719 q 713 647 715 682 l 707 647 l 596 650 q 583 650 588 650 q 569 633 578 650 l 717 633 l 733 501 q 750 500 740 497 l 767 375 l 790 375 l 790 175 m 865 165 q 837 126 850 146 q 801 94 824 106 l 801 165 q 811 169 803 168 q 829 171 819 171 q 849 169 839 171 q 865 165 858 168 m 796 83 l 792 83 l 792 128 l 796 128 l 796 83 m 603 175 q 597 163 601 169 q 589 150 593 157 l 579 150 q 585 161 582 154 q 590 175 588 168 l 603 175 m 333 303 l 176 303 l 331 322 q 332 315 331 319 q 333 303 333 311 m 414 189 q 411 158 411 175 q 414 125 411 140 l 303 125 q 296 87 299 108 q 292 60 293 65 l 292 44 l 357 44 q 372 78 364 60 q 385 114 379 97 l 411 114 l 411 -8 l 397 -8 q 382 -6 394 -8 q 352 -1 369 -4 q 317 6 335 1 q 285 14 299 10 l 299 124 l 296 125 l 283 125 q 276 75 281 106 q 268 19 272 44 q 273 70 271 47 q 279 113 275 93 l 276 125 l 267 125 q 259 75 263 100 q 253 25 256 50 q 183 60 218 35 q 117 119 147 86 q 66 188 88 151 q 38 258 44 225 q 46 258 42 257 q 54 258 50 258 q 72 285 67 276 q 82 296 78 293 q 90 298 86 299 q 104 297 94 297 q 121 297 114 297 q 133 286 128 296 l 235 286 q 252 297 243 296 q 268 297 261 297 q 285 297 281 297 q 293 292 290 296 q 300 281 296 289 q 317 258 304 274 q 334 258 325 257 q 350 257 343 258 q 376 220 354 242 q 414 189 397 199 m 875 886 l 875 1097 l 404 1097 q 404 1058 408 1075 q 340 1049 375 1058 q 273 1021 306 1040 q 214 974 240 1001 q 176 908 188 946 q 154 919 165 915 q 132 928 143 922 l 132 914 q 139 913 138 914 l 139 618 l 86 618 q 104 624 93 626 q 124 624 115 622 l 82 624 l 65 511 l 144 500 l 144 585 q 153 603 146 594 q 158 582 157 593 q 160 567 160 571 q 154 526 160 547 q 160 497 149 506 l 315 475 q 325 478 322 475 q 400 535 363 518 q 475 553 438 553 q 494 551 482 553 q 515 550 506 550 l 525 553 l 525 632 q 509 633 521 635 q 484 631 497 631 q 461 634 471 631 q 451 651 451 638 l 451 751 q 453 765 451 757 q 456 779 456 772 q 453 772 456 775 q 450 786 450 778 l 426 786 q 427 778 426 782 q 425 772 428 775 q 422 786 422 779 q 422 800 422 793 l 413 800 l 413 722 q 417 723 415 722 q 421 721 418 724 q 419 718 417 718 q 424 715 421 718 q 395 703 408 711 q 367 696 382 696 l 383 800 l 269 800 l 272 814 q 334 812 311 813 q 368 811 357 811 q 382 812 379 811 q 386 814 385 813 q 386 830 386 821 q 389 856 386 839 q 385 844 386 851 q 382 831 385 838 l 375 831 q 372 856 371 844 q 369 844 369 851 q 365 831 368 838 l 347 831 q 344 843 344 838 q 344 856 344 849 q 340 857 342 856 q 338 858 339 857 q 338 844 338 851 q 335 831 338 836 l 271 831 l 271 885 l 182 885 q 169 856 178 874 q 160 832 160 838 l 160 763 q 156 755 160 757 q 151 749 151 753 l 151 618 q 151 612 151 613 q 147 608 150 611 l 146 843 q 155 869 150 856 q 167 894 160 882 l 338 894 q 343 883 343 889 q 368 883 354 888 l 368 872 q 380 890 371 886 q 401 894 389 894 q 427 893 414 894 q 450 894 440 892 l 450 982 q 460 1001 451 988 q 475 1025 468 1014 l 663 1025 q 667 1015 665 1021 q 671 1006 668 1010 l 706 1006 q 709 1015 708 1010 q 714 1025 710 1021 l 849 1025 q 865 1001 856 1014 q 874 982 874 988 l 875 886 m 586 175 l 576 175 q 568 162 572 168 q 563 150 564 156 l 575 150 q 581 163 578 157 q 586 175 583 169 m 464 125 l 464 174 q 444 178 453 176 q 429 183 436 181 l 429 125 l 464 125 z "},"6":{"ha":1039,"x_min":44,"x_max":986,"o":"m 878 631 l 408 631 q 521 707 465 688 q 640 726 576 726 q 754 708 693 726 q 878 631 815 690 m 986 360 q 972 250 986 307 q 924 142 957 193 q 839 53 892 92 q 710 -3 786 14 q 635 -15 671 -11 q 567 -18 599 -18 q 552 -17 564 -18 q 524 -16 540 -17 q 490 -14 507 -15 q 463 -11 474 -12 q 441 -7 454 -10 q 415 -3 428 -4 q 315 32 363 3 q 228 101 267 61 q 164 183 190 140 q 129 261 138 226 q 122 271 128 269 q 110 272 117 272 q 97 270 104 271 q 86 272 90 269 q 73 283 81 276 q 58 297 65 290 l 58 407 q 76 417 67 411 q 94 428 86 422 q 90 449 97 439 q 83 444 88 446 q 75 440 79 443 q 80 450 78 444 q 89 458 82 456 q 76 457 86 461 q 76 463 76 460 q 81 469 76 467 l 79 469 q 77 470 78 469 q 75 471 76 471 q 75 481 75 475 q 72 494 75 488 l 89 503 l 89 504 q 88 507 89 506 q 72 501 82 501 q 77 511 72 506 q 88 521 82 517 q 89 547 90 533 q 90 575 88 561 q 97 583 92 581 q 103 592 103 586 l 103 626 l 93 618 q 98 681 96 647 q 101 742 100 714 l 103 742 l 106 744 l 106 786 q 99 793 104 786 q 94 806 94 800 l 94 849 q 120 857 106 853 q 143 861 135 861 q 145 863 146 863 q 146 867 144 864 q 181 931 157 899 q 235 992 204 964 q 299 1042 265 1019 q 363 1075 332 1064 q 465 1103 418 1096 q 561 1110 513 1110 q 679 1101 618 1110 q 795 1064 740 1092 q 894 985 850 1036 q 964 847 939 933 l 664 807 q 626 894 653 864 q 554 924 599 924 q 489 906 515 924 q 446 860 463 888 q 421 798 429 832 q 408 731 413 764 q 402 671 404 699 q 397 629 400 643 l 244 629 q 240 618 242 622 q 246 607 239 614 l 893 610 q 914 592 903 606 q 935 560 925 578 q 952 526 944 543 q 964 499 960 508 l 651 499 q 606 531 629 522 q 554 540 582 540 q 518 537 536 540 q 489 522 500 533 q 500 481 493 500 l 972 481 q 981 435 978 451 q 985 409 985 419 q 986 388 986 399 q 986 360 986 378 m 53 344 l 44 340 q 45 373 44 356 q 49 401 46 390 q 52 376 51 392 q 53 344 53 360 m 117 782 l 106 786 l 106 782 l 115 778 l 117 782 m 700 319 l 700 349 q 669 351 681 346 q 665 389 667 371 q 658 424 663 407 l 467 424 q 460 453 463 439 q 456 479 458 467 l 438 479 q 413 417 419 450 q 406 360 406 383 q 413 299 406 332 q 439 238 421 267 q 487 190 457 210 q 561 171 517 171 q 642 199 601 171 q 693 283 682 226 q 697 303 694 290 q 700 319 700 315 m 286 482 l 286 499 l 258 499 l 258 482 l 286 482 m 110 479 l 107 496 l 107 493 q 108 490 107 492 q 108 486 108 489 q 99 481 103 481 q 104 481 101 481 q 110 479 107 482 m 100 493 l 99 497 l 86 490 l 86 486 l 100 493 m 647 329 l 469 329 l 469 349 l 647 349 l 647 329 z "},"7":{"ha":986,"x_min":51,"x_max":940,"o":"m 940 1060 q 922 1064 931 1060 q 908 1038 914 1051 q 894 1011 901 1024 q 885 1016 892 1014 q 874 1021 878 1018 l 892 1075 l 940 1075 l 940 1060 m 885 1081 l 804 1117 l 885 1117 l 885 1081 m 910 844 q 888 821 899 833 q 865 799 876 808 l 624 799 q 637 822 631 810 q 647 844 643 833 l 910 844 m 494 835 l 489 835 l 489 858 l 494 858 l 494 835 m 481 843 l 475 843 l 475 867 l 481 867 l 481 843 m 467 851 l 461 851 l 461 875 l 467 875 l 467 851 m 497 821 l 492 821 l 492 828 l 497 828 l 497 821 m 483 821 l 478 821 l 478 836 l 483 836 l 483 821 m 469 821 l 464 821 l 464 844 l 469 844 l 469 821 m 456 829 l 450 829 l 450 853 l 456 853 l 456 829 m 442 838 l 436 838 l 436 861 l 442 861 l 442 838 m 444 821 l 439 821 l 439 833 l 444 833 l 444 821 m 940 876 q 933 870 935 874 q 928 860 931 867 q 923 852 926 857 q 914 847 919 847 l 649 847 q 661 875 656 861 q 671 901 667 889 q 669 903 668 904 q 665 903 671 903 q 657 895 661 903 q 649 878 653 888 q 642 860 644 869 q 638 847 639 851 q 615 846 628 850 q 635 844 624 842 q 628 829 631 838 q 624 813 626 821 q 615 801 621 806 q 599 796 610 796 l 599 789 q 604 786 601 786 q 610 786 607 786 q 594 752 606 771 q 583 711 582 733 q 601 749 593 731 q 617 786 608 767 l 854 786 q 757 660 799 721 q 768 654 761 657 q 782 647 775 651 q 674 421 725 519 q 569 229 624 322 q 568 210 567 226 q 567 182 569 193 q 556 109 563 146 q 546 36 550 72 q 513 51 531 43 q 479 65 496 58 l 478 161 q 476 157 476 160 q 476 145 476 154 q 476 117 476 136 q 476 67 476 99 q 453 78 465 72 q 431 88 440 83 q 431 96 428 92 q 424 101 428 100 q 417 106 421 103 q 388 67 401 90 q 431 46 408 56 q 476 25 453 36 l 476 -12 l 240 -12 l 240 -1 q 242 9 240 0 q 245 29 243 18 q 249 52 247 40 q 253 74 251 64 q 319 342 275 206 q 446 611 363 479 q 456 628 449 618 q 469 650 463 639 l 472 561 q 475 574 475 567 q 474 589 475 582 l 593 572 l 593 688 q 550 699 572 694 q 507 707 528 703 l 507 878 q 503 858 503 874 q 503 867 503 863 q 500 878 503 871 l 492 878 q 489 867 489 876 l 489 876 q 487 878 486 879 q 482 878 488 878 q 475 872 475 878 l 475 875 q 471 878 475 878 l 454 878 q 450 861 450 869 q 447 878 450 867 l 439 878 q 436 868 436 875 q 433 878 436 875 l 428 878 q 428 835 425 856 l 403 835 q 406 858 406 846 q 404 875 407 869 q 356 865 383 869 q 303 853 328 860 q 279 843 292 849 q 254 833 267 838 q 233 824 242 828 q 221 819 224 819 l 163 819 q 144 820 147 819 q 139 828 142 821 l 131 828 q 126 824 128 826 q 121 821 125 821 l 121 829 q 118 831 118 832 q 113 831 118 831 q 104 826 107 831 q 97 819 101 822 q 95 838 97 828 q 93 860 93 849 q 80 864 86 864 q 65 867 74 864 q 62 842 63 854 q 58 819 61 831 q 57 844 58 829 q 55 872 56 858 q 53 895 54 885 q 51 908 51 906 q 54 913 51 914 q 57 918 57 913 l 57 1075 l 208 1075 q 223 1081 213 1075 q 236 1094 233 1088 l 558 1094 q 563 1123 561 1106 q 567 1153 564 1140 q 596 1158 581 1157 q 626 1161 611 1158 q 633 1144 631 1153 q 638 1130 635 1136 q 647 1120 642 1124 q 665 1119 653 1117 q 667 1097 665 1108 q 665 1075 668 1086 l 717 1075 q 719 1088 719 1081 q 718 1103 719 1096 q 729 1106 722 1103 q 739 1117 736 1110 l 768 1117 q 719 1033 743 1074 q 682 947 696 992 l 692 947 l 775 1100 q 823 1081 796 1093 q 874 1058 850 1068 q 851 988 865 1024 q 868 978 858 982 q 886 972 878 975 l 919 1036 q 940 1031 929 1036 l 940 876 m 543 -12 l 481 -12 l 481 22 q 512 10 496 15 q 543 -3 528 4 l 543 -12 m 597 357 l 597 569 l 592 569 l 592 357 l 597 357 m 514 561 q 499 524 507 544 q 486 489 492 504 q 502 525 494 506 q 514 561 510 544 m 478 257 l 478 472 l 472 472 l 472 257 l 478 257 m 468 442 l 318 93 q 381 67 349 82 q 394 89 388 78 q 404 111 400 100 q 392 111 397 115 q 383 100 388 107 q 360 113 371 107 q 338 122 349 118 q 369 213 349 165 q 406 293 389 261 q 440 367 424 328 q 468 442 457 406 z "},"8":{"ha":986,"x_min":51,"x_max":943,"o":"m 907 826 q 877 710 907 768 q 768 596 847 651 q 799 578 783 589 q 832 557 815 568 l 610 557 l 610 606 l 357 606 l 357 697 q 356 694 356 696 q 356 683 356 692 q 356 656 356 674 q 358 607 357 638 l 217 607 l 218 744 l 218 607 q 114 709 143 647 q 85 828 85 771 q 86 852 85 833 q 90 886 88 871 q 94 894 92 889 q 97 907 97 900 q 115 951 97 924 q 157 1004 132 978 q 209 1050 182 1031 q 256 1069 236 1069 l 353 1058 q 350 1033 350 1047 q 353 1006 350 1018 q 354 1010 354 1007 q 354 1021 354 1013 q 354 1046 354 1029 q 354 1092 354 1063 q 362 1093 357 1092 q 374 1094 367 1094 l 374 1139 l 431 1139 l 431 1119 q 472 1119 451 1119 q 517 1118 493 1118 q 665 1099 594 1118 q 790 1043 736 1081 q 875 951 843 1006 q 907 826 907 897 m 592 583 q 585 556 589 571 q 578 529 582 542 l 565 529 q 572 557 568 543 q 579 583 575 571 l 592 583 m 567 583 q 560 556 563 571 q 553 529 557 542 l 540 529 q 546 556 542 540 q 554 583 550 571 l 567 583 m 539 583 q 533 553 536 567 q 528 529 531 540 l 515 529 q 521 559 518 546 q 526 583 524 572 l 539 583 m 514 583 q 508 556 511 571 q 500 529 504 542 l 488 529 q 494 556 490 542 q 501 583 497 571 l 514 583 m 489 583 q 482 556 485 571 q 475 529 479 542 l 463 529 q 468 558 465 544 q 474 583 471 572 l 489 583 m 461 583 q 456 555 458 568 q 450 529 453 542 l 443 529 q 435 532 438 529 q 442 558 439 544 q 449 583 446 571 l 461 583 m 436 583 q 430 556 433 571 q 422 529 426 542 l 410 529 q 416 556 413 542 q 424 583 419 571 l 436 583 m 411 583 q 404 556 407 571 q 397 529 401 542 l 385 529 q 390 556 386 540 q 396 583 393 571 l 411 583 m 383 574 q 379 554 385 568 q 369 529 374 540 q 363 530 367 528 q 360 538 360 532 q 364 558 360 543 q 371 583 368 572 l 383 583 l 383 574 m 356 583 q 351 552 353 564 q 347 532 350 540 l 332 529 q 338 556 335 542 q 346 583 342 571 l 356 583 m 333 583 q 326 556 329 571 q 319 529 324 542 l 307 529 q 313 559 310 546 q 318 583 315 572 l 333 583 m 306 583 q 300 556 303 568 q 294 532 297 543 q 287 529 292 529 q 279 532 282 529 q 286 558 283 544 q 293 583 289 571 l 306 583 m 281 583 q 274 556 278 571 q 267 529 271 542 l 254 529 q 260 558 258 544 q 265 583 263 571 l 281 583 m 256 583 q 248 556 251 571 q 242 529 244 542 l 229 529 q 235 559 232 546 q 240 583 238 572 l 256 583 m 226 583 q 226 568 228 576 q 221 553 224 560 q 222 568 221 560 q 226 583 224 576 m 217 529 l 201 529 q 209 556 206 542 q 217 583 213 571 l 217 529 m 943 329 q 929 242 943 283 q 896 163 915 200 q 821 74 868 107 q 718 22 774 40 q 605 -2 663 4 q 497 -8 547 -8 q 472 -8 492 -8 q 428 -6 451 -8 l 425 -7 q 427 -25 425 -14 q 428 -42 429 -36 l 428 -53 q 422 -31 424 -43 q 417 -6 421 -18 q 415 -28 414 -17 q 417 -53 417 -40 q 412 -30 414 -42 q 407 -6 410 -18 q 405 -24 404 -14 q 406 -53 406 -33 q 402 -30 403 -42 q 397 -3 401 -18 l 397 -53 q 393 -29 394 -40 q 389 -3 392 -18 q 387 -28 386 -15 q 385 -53 388 -42 q 383 -28 386 -42 q 378 -3 381 -14 l 378 -4 q 380 -21 378 -11 q 381 -36 382 -31 l 381 -53 q 375 -27 376 -40 q 371 -1 374 -14 q 315 12 343 6 q 257 26 286 18 l 257 50 q 265 53 263 50 l 265 157 q 264 161 265 163 q 260 160 263 160 q 259 177 260 167 q 265 194 258 188 l 276 194 l 276 303 l 360 303 l 360 436 q 358 427 357 433 q 358 414 358 421 l 221 414 q 224 443 224 428 q 222 475 225 458 l 221 310 q 224 303 221 307 q 226 296 226 300 l 228 40 q 144 97 178 63 q 90 172 110 132 q 60 253 69 213 q 51 331 51 294 q 57 390 51 358 q 75 451 63 421 q 108 510 88 482 q 161 558 129 538 q 155 533 158 546 q 147 508 151 521 q 193 506 167 506 q 225 506 219 506 l 356 506 q 356 491 356 499 q 358 475 356 483 q 360 489 361 482 q 360 503 360 496 q 365 505 360 504 q 381 506 369 506 q 413 505 392 506 q 465 504 433 504 q 424 486 449 501 q 381 446 399 471 l 381 433 q 393 431 388 431 q 406 431 399 431 q 413 313 410 374 q 426 200 415 251 q 438 192 428 196 q 456 185 449 188 q 480 180 467 182 q 499 178 493 178 q 563 194 536 178 q 606 236 589 211 q 630 290 622 261 q 638 342 638 318 q 632 392 638 367 q 613 439 626 417 q 576 478 599 461 q 521 506 554 496 l 811 506 l 842 458 l 911 458 q 924 430 918 447 q 933 397 931 413 l 867 397 l 867 381 l 942 381 l 939 376 q 941 351 939 368 q 943 329 943 335 m 618 808 q 586 897 618 861 q 493 933 554 933 q 480 934 488 933 q 465 933 472 935 q 435 924 453 931 q 415 910 418 917 q 407 863 406 890 q 404 811 408 836 l 376 811 q 379 793 382 803 q 376 772 376 783 q 389 737 376 753 q 420 709 401 721 q 460 690 439 697 q 499 683 482 683 q 584 717 550 683 q 618 808 618 751 m 357 740 l 357 958 l 353 958 l 353 740 l 357 740 m 218 801 l 218 1008 l 214 1008 l 214 801 l 218 801 z "},"9":{"ha":1064,"x_min":54,"x_max":1024,"o":"m 918 899 l 896 899 l 896 908 l 915 908 q 917 903 915 906 q 918 899 918 901 m 1024 608 q 1016 639 1014 621 q 1015 669 1018 657 l 1024 669 l 1024 608 m 1010 604 q 957 574 982 590 l 960 553 l 993 569 q 990 560 993 567 q 979 551 986 554 q 993 553 983 547 q 992 547 993 550 q 988 540 992 543 q 989 539 988 539 l 993 539 q 993 528 993 535 q 996 515 993 522 q 986 512 992 514 q 974 506 981 510 q 983 504 978 503 q 992 508 988 506 q 983 495 994 500 q 963 482 971 490 l 963 225 q 969 216 965 224 q 974 203 974 208 l 974 163 q 959 155 967 160 q 947 150 951 150 l 849 150 q 760 67 808 99 q 663 17 713 35 q 566 -6 614 0 q 479 -11 518 -11 q 361 -2 421 -11 q 248 35 301 7 q 150 115 194 63 q 76 253 106 167 l 379 289 q 415 206 386 238 q 488 175 443 175 q 559 198 531 175 q 604 254 588 221 q 628 326 621 288 q 638 394 635 364 l 825 394 q 827 399 828 397 q 826 406 826 400 q 822 419 826 411 q 818 433 818 428 l 818 488 q 812 494 814 489 q 808 504 810 499 l 788 504 q 783 486 785 496 q 779 465 782 476 l 665 465 q 665 483 667 472 q 658 504 664 493 l 131 504 q 70 621 86 563 q 54 738 54 679 q 55 752 54 740 q 57 780 56 764 q 60 813 58 796 q 67 842 63 829 q 133 981 89 928 q 234 1065 178 1035 q 353 1106 290 1096 q 474 1117 415 1117 q 575 1110 519 1117 q 685 1082 631 1103 q 789 1023 740 1061 q 871 922 838 985 q 885 917 874 917 q 885 904 885 911 q 888 892 885 897 q 910 842 901 863 q 922 804 918 821 q 930 772 926 788 q 940 740 933 757 q 972 738 953 739 q 1010 714 992 738 l 1010 604 m 646 446 l 474 446 l 474 463 l 646 463 l 646 446 m 525 394 q 497 385 514 389 q 463 377 481 381 q 430 372 446 374 q 401 369 414 369 q 374 372 397 369 q 335 378 351 375 l 408 378 q 411 387 411 385 q 406 394 411 389 l 269 394 q 251 403 265 394 q 222 422 238 411 q 192 443 206 433 q 176 456 179 453 l 453 456 q 470 433 463 446 q 485 410 478 421 q 501 394 492 400 q 525 394 511 389 m 982 519 l 981 524 l 968 518 l 968 514 l 982 519 m 976 533 q 961 528 965 533 q 963 543 958 533 q 962 544 965 543 q 958 549 958 546 l 958 410 q 961 463 958 438 q 964 513 964 489 q 961 518 964 515 q 960 524 958 521 q 968 528 964 526 q 976 533 972 531 m 515 922 l 515 926 l 449 926 l 449 922 l 515 922 m 825 486 l 819 486 l 817 435 l 822 435 l 825 486 m 963 228 q 952 233 956 228 q 951 246 949 239 q 950 272 949 257 q 951 303 951 288 q 949 310 949 306 q 946 317 950 314 l 946 340 q 961 338 958 340 l 961 369 q 958 359 963 365 q 943 350 954 353 q 944 291 943 321 q 947 232 946 261 q 955 228 950 229 q 963 228 960 226 m 635 739 q 632 769 635 746 q 626 806 629 792 l 494 806 q 474 810 479 806 q 467 822 468 814 q 464 843 465 831 q 457 872 463 856 q 454 863 456 865 q 446 861 453 861 q 434 867 439 861 q 427 882 429 874 q 424 897 425 890 q 424 906 424 904 l 408 906 q 388 891 399 906 q 367 859 376 876 q 353 826 358 842 q 347 808 347 810 q 344 799 346 804 q 343 788 343 793 l 343 703 l 410 703 l 410 646 l 490 646 q 495 617 493 631 q 499 590 497 603 l 575 590 q 587 599 579 590 q 601 618 594 607 q 615 640 608 629 q 622 657 621 651 q 628 683 626 668 q 633 710 631 699 q 634 726 633 717 q 635 739 635 735 m 406 675 q 403 653 403 664 q 400 631 403 642 q 397 653 397 642 q 397 676 397 665 q 397 661 397 668 q 394 647 397 654 q 392 663 392 656 q 392 678 392 671 q 389 647 389 663 q 389 615 389 631 q 389 631 389 624 q 392 644 389 638 q 394 630 394 636 q 394 617 394 624 q 397 628 394 626 q 404 618 401 618 q 403 645 404 631 q 406 675 403 660 m 356 665 l 356 678 l 350 678 l 350 665 l 356 665 m 386 678 q 383 653 383 665 q 381 628 383 640 q 378 652 378 640 q 378 678 378 664 q 378 660 378 669 q 375 642 378 650 q 372 658 372 650 q 372 675 372 667 q 369 658 372 664 q 367 668 367 663 q 367 678 367 674 q 364 657 364 667 q 364 639 364 647 q 364 648 364 643 q 367 656 364 653 q 369 641 369 647 q 369 628 369 635 q 372 639 369 638 q 375 628 375 632 q 375 619 375 624 q 374 622 375 622 q 378 622 372 622 q 383 620 383 622 q 385 618 382 618 q 384 649 385 633 q 386 678 383 665 m 361 649 l 361 678 l 356 678 l 356 649 l 361 649 m 463 563 q 461 578 463 574 q 460 586 460 583 l 404 586 q 430 570 415 579 q 450 563 444 561 l 463 563 z "},"\u0000":{"ha":0,"x_min":0,"x_max":0,"o":""},"\r":{"ha":0,"x_min":0,"x_max":0,"o":""}," ":{"ha":465,"x_min":0,"x_max":0,"o":""},",":{"ha":1389,"x_min":0,"x_max":0,"o":""},"-":{"ha":1389,"x_min":0,"x_max":0,"o":""},".":{"ha":1389,"x_min":0,"x_max":0,"o":""},"A":{"ha":1263,"x_min":42,"x_max":1204,"o":"m 868 956 q 853 960 861 958 q 836 964 844 961 q 839 1000 839 988 q 838 1024 839 1013 l 868 956 m 832 1047 l 689 1090 l 818 1090 q 826 1069 822 1082 q 832 1047 829 1057 m 982 647 l 681 647 q 671 678 676 661 q 661 713 665 696 l 960 713 q 969 682 964 697 q 982 647 975 667 m 1121 283 l 997 283 l 1053 463 l 1121 283 m 1204 61 l 1038 61 q 1022 44 1025 51 q 1017 31 1018 38 q 1018 17 1017 24 q 1018 3 1019 11 l 911 3 l 961 167 l 1047 167 l 1047 179 l 967 179 q 975 208 971 193 q 983 235 979 222 l 1063 235 q 1071 208 1067 222 q 1079 179 1075 194 l 1160 179 l 1204 61 m 1047 479 l 985 282 l 839 282 q 831 305 835 293 q 822 328 826 317 l 711 328 l 711 374 l 560 374 q 558 372 560 372 q 556 369 556 369 q 551 328 553 349 q 549 286 549 307 q 546 284 549 285 q 536 283 543 283 q 515 283 529 283 q 475 281 500 282 l 782 281 q 788 258 785 269 q 796 235 792 246 l 971 235 l 954 182 l 440 182 l 385 3 l 144 3 q 156 32 151 18 q 172 61 161 46 q 151 71 167 68 q 139 36 144 54 q 129 3 133 18 l 42 3 l 78 97 q 68 101 74 100 q 56 106 63 103 q 51 128 53 117 q 47 149 50 139 l 97 301 l 94 301 q 81 264 88 285 q 68 224 75 243 q 65 225 67 224 q 61 228 64 225 l 99 324 q 97 314 97 319 q 99 304 96 308 q 102 314 101 308 q 106 326 103 319 q 126 338 114 333 q 149 350 139 343 q 167 367 160 357 q 172 396 174 378 q 156 385 165 389 q 139 376 147 381 q 153 399 136 392 q 178 411 169 407 q 180 414 181 413 q 178 415 179 415 q 147 401 163 407 q 149 408 147 404 q 150 415 150 413 q 167 426 157 419 q 182 432 176 432 q 186 432 188 432 q 188 429 185 432 q 190 434 190 432 q 189 443 189 436 q 173 432 182 436 q 156 424 164 428 q 161 439 156 433 q 174 448 167 444 q 188 454 182 451 q 197 461 194 457 q 181 457 189 461 q 164 449 172 453 q 176 469 161 464 q 206 482 192 475 q 203 488 206 485 q 186 480 194 485 q 169 471 178 475 q 175 483 169 478 q 187 491 181 488 q 199 498 193 494 q 207 507 204 501 q 251 626 231 565 q 290 746 271 688 q 297 772 293 757 q 308 801 301 786 q 319 834 314 813 q 333 874 325 856 q 339 894 336 883 q 344 915 342 904 q 351 906 347 911 q 357 893 354 900 q 359 894 360 896 q 358 899 358 893 q 353 912 358 904 q 347 925 347 919 q 351 938 347 928 q 358 961 354 947 q 367 989 363 975 q 375 1014 372 1003 q 390 1022 382 1017 q 403 1026 397 1026 q 410 1025 407 1026 q 422 1021 414 1024 q 437 1056 431 1038 q 450 1090 443 1074 l 490 1090 l 444 1014 q 462 1007 450 1007 q 476 993 474 1007 q 505 1041 492 1017 q 533 1090 518 1065 q 560 1091 546 1090 q 585 1089 574 1092 q 697 1054 642 1074 q 810 1018 753 1035 q 809 976 811 1001 q 804 924 807 951 q 847 914 821 917 q 888 894 874 911 q 927 815 917 860 q 954 728 938 769 l 689 724 q 674 724 683 724 q 658 725 665 724 q 644 763 650 743 q 631 804 638 783 q 615 766 618 789 q 601 724 613 743 l 399 724 q 393 714 393 718 l 599 714 q 590 681 594 699 q 582 646 586 664 l 368 646 q 371 638 368 640 l 576 638 l 510 418 l 747 418 l 683 638 l 988 638 l 1047 479 m 704 351 q 701 327 701 340 q 697 301 700 314 q 699 329 700 314 q 704 351 697 344 m 694 351 l 689 303 l 685 303 l 690 351 l 694 351 m 685 351 q 683 327 685 340 q 678 301 681 314 q 680 327 678 314 q 685 351 682 340 m 676 351 q 673 327 674 340 q 669 301 672 314 q 671 329 672 314 q 676 351 669 344 m 664 303 l 660 303 l 660 351 l 664 351 l 664 303 m 658 351 l 653 303 l 649 303 l 654 351 l 658 351 m 949 165 l 899 1 l 875 1 l 828 165 l 949 165 m 644 351 q 646 328 647 343 q 642 301 644 314 q 642 326 642 313 q 644 351 642 339 m 640 351 q 635 326 638 339 q 631 301 633 313 l 631 317 q 633 333 631 322 q 640 351 636 344 m 631 351 l 625 303 l 621 303 l 626 351 l 631 351 m 621 351 q 619 324 619 339 q 611 306 618 308 q 616 328 614 317 q 621 351 618 340 m 613 351 q 609 327 610 340 q 606 301 608 314 q 606 329 608 315 q 613 351 604 343 m 603 351 l 597 303 l 593 303 l 599 351 l 603 351 m 593 351 q 591 327 593 340 q 586 301 589 314 q 588 327 586 314 q 593 351 590 340 m 585 351 q 581 327 582 342 q 578 301 581 313 q 579 329 581 314 q 585 351 578 344 m 574 351 q 572 327 574 340 q 567 301 569 314 q 569 326 567 313 q 574 351 571 339 m 356 886 l 356 893 l 351 893 l 351 886 l 356 886 m 353 878 l 353 885 l 349 885 l 349 878 l 353 878 m 350 869 l 350 876 l 346 876 l 346 869 l 350 869 m 347 861 l 347 868 l 343 868 l 343 861 l 347 861 m 344 853 l 344 860 l 340 860 l 340 853 l 344 853 m 339 849 q 338 847 338 847 q 336 849 336 847 q 333 842 333 849 q 332 832 333 835 q 314 778 322 804 q 294 724 306 751 q 290 735 290 728 q 281 704 281 715 q 296 714 293 710 q 318 781 307 747 q 339 849 329 815 m 254 532 q 248 533 251 532 q 242 535 244 535 l 131 211 q 161 201 146 207 q 193 190 176 194 l 221 279 q 200 285 213 282 q 186 294 188 288 l 254 532 z "},"B":{"ha":1113,"x_min":-86,"x_max":1065,"o":"m 1015 815 q 1010 765 1015 793 q 997 721 1006 738 l 714 721 q 708 710 708 715 l 957 710 q 927 690 944 701 q 893 667 910 678 q 864 648 876 656 q 849 640 851 640 l 689 640 q 683 632 683 635 l 507 632 q 504 636 504 635 q 501 640 504 638 l 60 640 l 60 707 l 179 707 q 181 713 181 711 q 176 721 182 715 l 60 721 l 60 732 l -74 731 q -82 742 -79 731 q -85 767 -85 753 q -83 798 -86 782 q -74 826 -81 814 l 58 826 l 58 1085 l 232 1085 l 232 1061 q 293 1054 258 1054 q 349 1054 328 1054 q 363 1055 351 1054 q 389 1056 375 1056 q 415 1056 403 1056 q 429 1057 426 1057 q 440 1056 433 1057 q 453 1051 446 1054 l 797 1054 q 810 1058 806 1053 q 813 1071 814 1064 q 906 1025 867 1053 q 969 964 944 997 q 1004 892 993 931 q 1015 815 1015 854 m 1065 307 q 1047 199 1065 251 q 992 106 1029 147 q 901 39 956 65 q 772 8 846 13 q 747 6 764 8 q 712 2 729 4 q 680 -2 694 0 q 663 -4 665 -4 l 349 -4 l 299 110 l 181 110 q 171 88 176 100 q 161 65 165 76 l 60 65 l 60 621 l 196 621 q 199 626 199 624 q 199 632 199 629 l 469 632 l 469 615 l 296 615 q 306 606 300 611 q 317 601 311 601 l 765 601 q 788 615 769 601 q 819 631 806 628 q 843 631 826 633 q 871 632 860 628 q 933 669 903 647 q 992 707 963 690 q 966 663 983 683 q 927 625 949 642 q 883 595 906 608 q 843 576 861 582 l 843 575 q 948 533 906 561 q 1017 470 990 506 q 1054 392 1043 435 q 1065 307 1065 350 m 685 764 q 676 811 685 788 q 636 850 667 835 q 601 861 622 857 q 574 865 579 865 l 399 865 l 399 735 l 681 735 q 684 750 683 742 q 685 764 685 758 m 494 660 q 495 670 499 660 q 489 688 492 681 l 399 688 l 399 660 l 494 660 m 729 343 q 717 394 729 374 q 684 428 704 415 q 640 446 664 440 q 593 451 615 451 l 399 451 l 399 332 q 426 329 414 335 q 428 292 426 310 q 426 257 429 274 l 399 257 l 399 232 l 618 232 q 648 238 631 232 q 682 255 665 244 q 711 281 699 265 q 725 314 724 296 q 728 329 726 321 q 729 343 729 338 m 293 604 q 281 614 286 611 l 257 614 q 276 607 268 610 q 293 604 285 604 m 251 606 q 245 610 249 608 q 239 614 242 613 l 210 614 q 228 606 217 610 q 251 606 240 603 m 58 804 q 51 783 54 794 q 49 767 49 771 l 49 754 q 55 780 54 767 q 58 804 56 793 m 49 804 l 44 804 l 39 757 l 43 757 l 49 804 m 38 804 q 31 754 31 781 q 35 780 33 767 q 38 804 36 793 m 28 804 q 21 785 24 797 q 18 769 18 774 l 18 754 q 24 780 24 767 q 28 804 25 793 m 210 608 q 205 612 207 611 q 200 615 203 613 l 174 615 q 192 607 179 608 q 210 608 206 606 m 17 804 q 13 781 14 793 q 11 757 11 768 q 15 781 14 768 q 17 804 17 793 m 6 804 q 1 780 3 793 q 0 754 0 767 q 5 783 4 769 q 6 804 6 796 m -3 804 q -10 786 -7 797 q -12 769 -12 775 l -12 754 q -6 780 -7 767 q -3 804 -6 793 m -14 804 q -18 780 -17 793 q -19 754 -19 767 q -15 780 -17 767 q -14 804 -14 793 m -25 804 q -29 780 -28 793 q -31 754 -31 767 q -26 782 -26 768 q -25 804 -25 796 m -33 804 q -40 786 -37 797 q -43 769 -43 775 l -43 754 q -37 780 -37 767 q -33 804 -36 793 m -44 804 q -49 780 -47 793 q -50 754 -50 767 q -46 780 -47 767 q -44 804 -44 793 m -56 804 q -60 780 -58 793 q -61 754 -61 767 q -56 783 -57 769 q -56 804 -56 796 m 610 276 l 594 276 l 594 240 l 585 240 l 585 285 q 595 282 589 285 q 610 276 601 279 m 539 275 l 432 278 l 432 283 l 539 281 l 539 275 z "},"C":{"ha":1172,"x_min":24,"x_max":1129,"o":"m 1129 369 q 1122 346 1122 360 l 992 346 l 992 329 l 1118 329 q 1029 157 1082 222 q 912 56 976 92 q 776 8 847 21 q 633 -4 704 -4 q 533 1 569 -4 q 464 10 496 6 q 444 15 456 11 q 419 22 432 18 q 397 29 407 26 q 385 32 388 32 l 263 32 q 261 42 263 36 q 260 50 260 47 l 335 53 q 261 100 299 69 q 192 171 224 131 q 190 155 189 164 q 190 140 190 146 q 190 126 190 135 q 190 111 189 118 q 199 81 193 96 q 211 51 204 65 q 224 50 217 49 q 237 51 231 51 q 249 47 243 51 q 256 29 254 43 l 204 29 q 196 60 201 43 q 185 95 190 76 q 176 133 181 114 q 174 169 172 151 l 38 169 q 55 188 44 178 q 76 208 65 197 q 62 244 69 224 q 54 269 54 264 l 54 371 q 46 378 50 375 q 38 386 42 382 l 54 386 l 54 696 q 24 731 36 714 q 34 731 26 733 q 47 729 42 729 l 63 729 q 65 742 64 733 q 68 757 65 750 q 76 768 71 764 q 93 768 82 772 q 184 947 126 878 q 314 1056 242 1017 q 465 1109 386 1094 q 619 1124 544 1124 q 766 1111 692 1124 q 907 1062 840 1099 q 1028 959 974 1025 q 1118 785 1083 893 l 821 718 q 799 771 817 744 q 758 819 782 797 q 708 856 735 842 q 658 871 681 869 l 607 868 q 618 860 610 857 q 631 861 626 864 q 638 847 633 854 q 643 833 643 839 l 643 343 q 640 337 643 339 q 638 331 638 335 q 664 331 650 328 q 689 328 678 333 q 707 317 703 321 q 714 310 711 313 q 722 308 717 308 q 743 307 728 307 q 753 306 747 307 q 763 307 760 304 q 809 378 794 339 q 832 457 824 418 l 846 457 q 861 453 849 457 q 890 445 874 450 q 922 435 906 440 q 950 425 939 429 q 958 417 954 422 q 967 407 963 411 q 1009 405 988 408 q 1051 395 1031 401 q 1092 381 1072 389 q 1129 369 1113 374 l 1129 369 m 638 471 l 638 792 q 615 792 622 785 q 604 812 607 799 q 599 840 601 825 q 592 863 597 854 l 561 863 q 526 849 546 863 q 486 818 506 836 q 452 781 467 800 q 435 749 438 761 l 557 749 q 567 744 563 749 q 574 736 571 739 q 555 724 567 726 q 538 724 543 721 q 532 711 535 718 q 524 703 529 704 l 415 703 l 415 431 q 423 399 415 425 q 438 357 431 374 q 443 358 440 357 q 451 360 446 360 q 471 354 460 360 q 476 360 465 360 q 495 353 482 360 q 518 339 508 346 q 481 337 494 336 q 461 338 467 338 q 449 335 449 338 q 490 331 467 332 q 519 329 514 329 l 632 329 l 632 464 q 635 467 632 469 q 638 471 638 465 m 408 647 l 408 651 l 324 651 l 324 647 l 408 647 m 408 638 l 408 642 l 313 642 l 313 638 l 408 638 m 411 690 l 411 703 l 190 703 l 190 688 l 392 688 q 393 697 392 694 q 401 699 394 699 q 408 698 407 699 q 411 690 408 697 m 172 688 l 172 700 l 154 700 l 143 688 l 172 688 m 208 647 l 208 651 l 190 651 l 190 647 l 208 647 m 408 457 l 408 500 l 407 624 l 407 578 l 182 578 l 182 563 q 190 559 186 560 q 193 554 193 558 q 188 535 193 549 q 182 515 182 521 l 182 457 l 408 457 m 174 650 l 72 650 l 72 663 q 67 649 69 656 q 65 639 65 643 l 63 424 q 72 417 68 419 q 81 413 76 415 q 78 417 81 415 q 74 422 76 419 q 78 425 76 425 q 79 428 79 425 q 74 458 76 443 q 71 483 72 472 q 70 505 69 494 q 69 525 71 515 q 67 543 68 531 q 72 560 65 556 l 172 560 l 172 579 l 68 579 l 68 597 q 71 641 68 631 q 85 651 74 651 q 117 648 96 651 q 174 650 138 644 m 172 457 l 172 481 q 170 470 172 476 q 168 460 168 464 l 172 457 m 83 388 l 83 397 q 74 403 81 400 q 63 408 67 406 l 63 388 l 83 388 m 143 240 q 126 274 135 257 q 110 308 117 292 q 107 318 108 311 q 103 328 106 325 q 83 347 93 338 q 63 361 72 356 l 63 303 q 69 255 63 282 q 79 215 75 228 q 93 224 88 219 q 104 234 99 229 q 119 241 110 239 q 143 240 128 243 m 633 732 q 623 759 629 744 q 613 786 617 774 l 633 786 l 633 732 m 401 521 q 398 503 401 515 q 392 482 394 490 l 374 482 q 381 506 378 490 q 389 521 383 521 q 394 519 394 521 q 396 517 393 517 q 397 527 399 521 q 397 538 396 533 q 401 521 401 529 m 371 533 q 370 510 374 522 q 367 482 367 497 l 346 482 q 352 510 347 493 q 363 538 357 526 l 371 533 m 346 524 q 340 506 346 519 q 331 482 335 493 l 315 482 q 324 509 319 494 q 332 536 328 524 l 346 536 l 346 524 m 318 533 q 310 508 314 521 q 303 482 306 494 l 285 482 q 293 509 289 494 q 301 536 297 524 l 318 533 m 288 536 q 279 509 283 524 q 272 482 275 494 l 254 482 q 263 509 258 494 q 271 536 267 524 l 288 536 m 257 536 q 250 509 254 524 q 242 482 246 494 l 226 482 q 233 510 231 496 q 240 536 236 524 l 257 536 z "},"D":{"ha":1146,"x_min":49,"x_max":1163,"o":"m 1118 718 l 1115 717 l 1103 735 l 1107 738 l 1118 718 m 481 975 q 476 947 478 963 q 471 919 475 932 l 471 940 q 474 957 471 946 q 481 975 476 968 m 469 975 q 469 948 469 965 q 460 919 468 931 l 460 938 q 463 953 460 942 q 469 975 465 965 m 458 975 q 456 946 457 964 q 449 919 456 928 l 449 935 q 451 953 449 940 q 458 975 454 967 m 443 975 q 446 951 449 969 q 440 919 443 933 q 441 949 442 936 q 443 975 440 963 m 436 975 q 434 946 435 958 q 426 919 433 933 l 426 929 q 430 949 426 933 q 436 975 433 964 m 425 975 q 424 947 425 963 q 419 919 422 932 q 421 950 419 936 q 425 975 422 964 m 414 975 q 412 947 413 963 q 408 919 411 932 q 410 947 408 932 q 414 975 411 963 m 407 971 q 402 945 404 958 q 397 919 400 932 q 398 946 397 931 q 399 975 399 961 q 401 974 400 974 q 404 972 403 972 q 407 971 406 972 m 396 971 q 391 945 393 958 q 386 919 389 932 q 387 945 386 929 q 388 975 388 961 q 390 974 389 974 q 393 972 392 972 q 396 971 394 972 m 382 965 q 381 948 381 958 q 379 926 382 938 q 374 919 379 919 q 376 955 376 943 q 376 975 376 967 q 382 965 386 969 m 372 975 q 368 947 369 964 q 363 919 367 931 l 363 943 q 365 958 363 949 q 372 975 368 968 m 1163 617 l 1121 617 q 1104 644 1114 631 q 1086 669 1094 657 q 1085 661 1085 668 q 1090 638 1085 647 q 1100 617 1094 628 l 1090 617 l 1090 438 l 754 438 l 754 599 q 749 643 754 617 q 737 695 744 669 q 721 741 729 721 q 704 767 713 761 l 888 767 l 888 783 l 688 783 q 603 827 650 818 q 514 839 557 836 q 465 838 482 839 q 439 838 447 838 q 428 838 431 838 q 425 839 426 838 l 425 674 l 558 674 l 558 644 l 428 644 l 426 643 l 426 613 q 436 611 429 611 l 436 333 q 425 325 428 333 l 90 325 l 90 388 l 226 388 l 226 435 l 90 435 l 90 540 q 81 542 86 543 q 71 543 75 542 q 58 563 67 550 q 49 582 49 576 l 49 943 q 58 960 49 947 q 74 982 67 972 q 80 983 76 983 q 88 985 83 983 q 90 985 90 986 q 90 990 90 985 l 90 1083 l 651 1083 q 739 1072 689 1083 q 839 1038 789 1061 q 933 979 889 1015 q 1004 894 978 943 l 640 894 q 632 920 636 907 q 621 944 628 933 q 587 946 606 944 q 563 947 568 947 l 488 947 l 488 997 l 308 997 q 301 947 304 972 q 294 896 297 922 l 572 896 q 580 869 576 882 q 589 844 583 856 l 906 844 q 915 814 911 829 q 925 783 918 799 l 1056 783 q 1071 739 1067 763 q 1076 736 1072 736 q 1082 735 1079 736 q 1122 677 1101 707 q 1163 617 1143 647 m 361 975 q 357 947 358 963 q 351 919 356 932 l 351 940 q 354 957 351 946 q 361 975 357 968 m 350 975 q 346 947 347 963 q 340 919 344 932 l 340 938 q 343 955 340 943 q 350 975 346 967 m 339 975 q 337 946 338 964 q 329 919 336 928 l 329 935 q 332 953 329 940 q 339 975 335 967 m 324 975 q 326 951 329 969 q 321 919 324 933 q 321 948 321 936 q 324 975 321 960 m 558 532 l 479 535 l 479 540 l 558 538 l 558 532 m 463 599 q 462 580 463 596 q 460 545 461 564 q 459 510 460 526 q 458 490 458 493 l 458 333 l 440 333 l 440 611 l 458 611 l 461 606 q 463 599 464 600 m 1072 333 q 1066 315 1069 325 q 1060 293 1063 304 q 1017 202 1047 247 q 949 119 988 157 q 867 56 910 82 q 789 24 825 31 q 779 22 785 24 q 767 18 774 21 q 742 13 754 15 q 717 7 729 10 q 690 3 706 6 q 661 -1 675 1 q 637 -4 647 -3 q 624 -6 626 -6 l 90 -6 l 90 308 l 425 308 l 425 242 l 543 242 q 592 247 565 242 q 644 261 619 251 q 689 287 669 271 q 718 325 708 303 l 1063 325 q 1067 329 1065 328 q 1072 333 1069 331 m 385 436 l 381 436 l 378 386 l 382 386 l 385 436 m 374 386 l 374 436 l 369 436 l 369 386 l 374 386 m 365 436 l 361 436 l 358 386 l 363 386 l 365 436 m 353 388 l 353 435 q 349 406 353 418 l 286 406 q 283 422 283 414 q 283 436 283 429 q 282 428 282 436 q 282 411 282 421 l 282 388 l 353 388 m 276 436 l 272 436 l 269 386 l 274 386 l 276 436 m 265 386 l 265 436 l 261 436 l 261 386 l 265 386 m 256 386 l 256 436 l 246 436 l 246 386 l 256 386 z "},"E":{"ha":1021,"x_min":-33,"x_max":979,"o":"m 979 3 l 935 3 q 931 3 929 1 q 931 7 933 4 q 915 12 924 10 q 897 15 907 14 q 875 14 888 17 q 850 13 863 11 q 834 16 843 14 q 819 18 825 18 l 471 18 q 465 17 469 18 q 453 15 460 17 q 442 10 447 14 q 438 3 438 7 l 61 3 l 61 99 q 84 99 72 99 q 108 100 96 99 q 119 113 113 106 q 125 126 125 121 l 125 301 l 231 301 q 236 308 236 307 q 203 311 219 311 q 169 311 186 311 q 170 316 169 314 q 168 321 171 318 q 165 311 165 318 l 125 311 l 125 376 q 143 372 132 374 q 161 378 154 371 q 143 384 154 385 q 125 381 132 383 l 125 528 q 120 542 125 532 q 111 560 115 553 q 86 560 99 561 q 89 564 86 563 q 92 568 92 565 l 93 567 q 96 563 93 565 q 99 569 99 565 q 101 563 99 565 q 104 569 104 565 q 107 563 104 565 q 110 572 110 565 q 109 567 110 569 q 111 563 108 565 q 114 574 117 569 q 108 585 111 579 q 107 578 107 583 q 104 585 107 582 q 101 580 101 582 q 100 575 101 578 l 100 583 q 93 585 97 586 q 89 588 89 585 q 88 581 86 583 q 90 574 90 578 q 90 581 92 578 q 85 588 88 583 q 83 586 85 586 q 81 583 81 583 l 81 593 l 8 593 l -33 726 l 28 726 q 31 740 31 729 q 36 734 33 738 q 43 726 39 731 l 61 729 q 56 735 58 731 q 50 743 54 739 l 60 743 l 60 1090 l 107 1090 q 108 1072 103 1078 q 122 1063 113 1065 q 141 1060 131 1060 q 156 1060 151 1060 q 172 1061 160 1060 q 190 1063 185 1063 q 196 1060 196 1063 q 201 1057 196 1057 l 433 1057 q 456 1064 450 1057 q 458 1090 461 1071 l 963 1090 l 963 860 l 399 860 l 399 828 l 465 828 q 461 801 463 814 q 457 776 460 788 l 210 776 q 213 753 208 768 q 229 724 218 738 q 233 733 233 729 q 231 742 233 738 q 228 749 229 746 q 231 757 226 753 l 454 757 q 455 747 456 753 q 451 725 454 740 l 626 725 q 633 706 631 715 q 643 685 636 696 l 888 685 q 892 670 890 678 q 893 658 893 663 l 649 656 q 653 648 651 651 q 657 640 654 644 l 914 643 q 907 664 910 654 q 900 685 904 674 l 921 685 l 921 464 l 401 464 q 399 456 399 460 l 165 456 q 168 402 165 428 q 174 349 171 376 l 239 346 q 240 388 239 367 q 239 435 242 410 l 371 435 l 371 358 l 468 358 q 473 320 471 340 q 485 283 475 300 q 674 281 579 282 q 865 281 769 281 l 846 281 q 843 267 843 274 q 840 250 843 261 q 858 249 843 250 q 893 249 872 249 q 937 249 914 249 q 979 250 960 250 l 979 222 q 932 222 958 226 q 953 214 939 211 q 979 215 968 217 l 979 3 m 97 575 l 93 575 l 93 582 l 97 582 l 97 575 m 86 572 l 82 572 l 82 579 l 86 579 l 86 572 m 626 686 q 625 697 626 693 q 624 704 624 701 l 456 704 l 456 686 l 626 686 m 933 231 l 933 240 l 929 240 l 929 231 l 933 231 m 643 642 q 640 650 640 646 q 640 657 640 654 l 257 657 l 240 707 l 231 707 q 240 676 235 692 q 250 644 246 660 q 260 641 254 642 q 268 636 265 640 q 278 608 275 621 l 421 608 q 424 616 424 613 q 429 625 425 619 l 510 625 q 518 642 510 633 l 643 642 m 453 608 q 453 618 463 613 l 453 608 m 446 618 q 442 615 443 618 q 442 608 442 611 q 447 615 446 611 q 446 618 449 618 m 435 618 q 430 614 432 618 q 431 607 428 610 q 436 614 435 610 q 435 618 438 618 m 890 15 l 890 19 l 883 19 l 883 15 l 890 15 m 838 15 l 838 19 l 831 19 l 831 15 l 838 15 m 367 401 l 363 401 l 360 347 l 364 347 l 367 401 m 358 401 l 354 401 l 351 347 l 356 347 l 358 401 m 350 401 l 346 401 l 344 347 l 349 347 l 350 401 m 344 401 l 340 401 l 335 347 l 339 347 l 344 401 m 336 401 l 332 401 l 329 347 l 333 347 l 336 401 m 328 401 l 324 401 l 321 347 l 325 347 l 328 401 m 319 401 l 315 401 l 313 347 l 317 347 l 319 401 m 435 250 q 432 271 432 265 q 432 279 432 276 l 400 279 l 400 250 l 435 250 m 310 399 q 306 346 310 371 q 309 376 308 365 q 310 399 310 388 m 60 608 l 60 638 q 55 645 60 639 q 44 660 50 651 q 33 677 38 668 q 28 692 28 686 q 28 701 28 697 q 29 707 29 704 l -17 707 l 14 608 l 60 608 m 306 401 l 301 401 l 296 347 l 300 347 l 306 401 m 297 401 l 293 401 l 290 347 l 294 347 l 297 401 m 289 401 l 285 401 l 282 347 l 286 347 l 289 401 m 281 401 l 276 401 l 274 347 l 278 347 l 281 401 m 271 401 q 270 380 271 393 q 267 346 269 367 q 270 373 269 357 q 271 401 271 389 m 267 401 l 263 401 l 257 347 l 261 347 l 267 401 m 258 401 l 254 401 l 251 347 l 256 347 l 258 401 m 440 217 l 440 225 l 178 225 l 178 217 l 440 217 m 164 358 l 164 368 l 160 368 l 160 358 l 164 358 m 167 333 l 167 346 l 163 346 l 163 333 l 167 333 m 172 286 l 172 299 l 168 299 l 168 286 l 172 286 m 175 264 l 175 274 l 171 274 l 171 264 l 175 264 m 178 239 l 178 251 l 174 251 l 174 239 l 178 239 m 49 625 l 25 625 l 25 657 q 36 642 29 650 q 49 625 43 633 z "},"F":{"ha":953,"x_min":57,"x_max":888,"o":"m 888 850 l 492 850 q 471 874 496 875 q 485 876 482 874 q 483 880 482 879 q 479 881 485 881 q 470 882 474 881 q 461 883 467 883 l 393 883 l 382 872 l 382 760 q 388 754 385 757 q 393 751 390 751 l 393 661 l 815 661 l 815 486 l 528 486 l 528 532 l 58 532 l 58 558 q 69 558 61 558 q 85 559 76 557 q 100 565 93 561 q 107 579 107 569 l 107 857 q 124 868 117 861 l 124 994 q 110 1004 119 1004 q 94 1007 101 1004 q 93 1008 93 1007 q 93 1013 90 1010 q 76 1018 89 1018 q 58 1011 63 1018 l 58 1082 l 888 1082 l 888 850 m 510 510 q 501 486 506 499 q 493 461 497 474 l 476 461 q 484 485 481 471 q 492 510 488 499 l 510 510 m 479 510 q 472 486 475 499 q 463 461 469 474 l 446 464 q 455 488 451 475 q 464 510 458 500 l 479 510 m 449 510 q 442 486 444 499 q 435 461 439 474 l 418 461 q 426 488 422 476 q 433 510 429 500 l 449 510 m 418 510 q 412 486 415 499 q 404 461 408 474 l 388 461 q 395 488 392 476 q 403 510 399 500 l 418 510 m 388 510 q 382 486 385 499 q 376 461 379 474 l 358 461 q 363 483 360 472 q 372 510 367 494 l 388 510 m 360 510 q 351 486 356 499 q 343 461 347 474 l 328 461 q 333 483 329 472 q 342 510 336 494 l 360 510 m 329 510 q 321 486 325 499 q 313 461 317 474 l 296 464 q 305 487 301 475 q 311 510 308 499 l 329 510 m 299 510 q 292 486 294 499 q 282 461 289 474 l 268 461 l 268 469 q 274 488 268 475 q 283 510 279 500 l 299 510 m 268 510 q 262 486 265 499 q 254 461 258 474 l 238 461 q 245 488 242 476 q 253 510 249 500 l 268 510 m 238 510 q 231 486 235 499 q 224 461 228 474 l 207 461 q 222 510 214 488 l 238 510 m 207 510 q 200 483 203 494 q 193 461 197 472 l 176 461 q 192 510 183 488 l 207 510 m 179 510 q 171 486 175 499 q 163 461 167 474 l 146 461 q 153 485 150 471 q 161 510 157 499 l 179 510 m 149 510 q 142 486 144 499 q 132 461 139 474 l 115 464 q 124 488 121 475 q 133 510 128 500 l 149 510 m 393 303 l 58 303 l 58 438 l 393 438 l 393 303 m 118 510 q 112 486 115 499 q 104 461 108 474 l 88 461 q 95 488 92 476 q 103 510 99 500 l 118 510 m 88 510 q 81 486 85 499 q 74 461 78 474 l 57 461 q 65 488 61 476 q 72 510 68 500 l 88 510 m 393 -6 l 107 -6 l 107 153 q 94 172 107 169 q 74 172 81 175 q 78 189 81 179 q 79 186 79 188 q 75 183 79 183 q 72 185 69 183 q 72 189 75 186 q 71 188 71 189 l 71 183 q 58 192 67 192 l 58 206 l 225 206 l 226 215 l 58 215 l 58 293 l 393 293 l 393 115 l 246 115 q 249 108 246 111 l 393 108 l 393 -6 m 113 1010 l 113 1014 l 100 1011 l 100 1007 l 113 1010 m 231 194 l 231 201 l 226 201 l 226 194 l 231 194 m 233 181 l 233 188 l 229 188 l 229 181 l 233 181 m 236 167 l 236 176 l 232 176 l 232 167 l 236 167 m 239 156 l 239 163 l 235 163 l 235 156 l 239 156 m 242 142 l 242 149 l 238 149 l 238 142 l 242 142 m 244 128 l 244 138 l 240 138 l 240 128 l 244 128 m 247 117 l 247 124 l 243 124 l 243 117 l 247 117 m 94 185 q 93 182 93 182 l 92 181 q 89 185 89 183 l 89 186 q 88 181 89 183 q 86 175 86 178 q 92 178 90 175 q 94 185 94 182 z "},"G":{"ha":1304,"x_min":61,"x_max":1239,"o":"m 939 754 q 919 749 931 751 q 897 744 908 747 q 898 751 897 747 q 896 754 899 754 l 939 754 m 1239 450 q 1231 447 1233 450 q 1224 410 1228 431 q 1226 369 1219 390 l 1239 381 l 1239 158 q 1103 74 1169 108 q 970 20 1036 40 q 838 -8 904 0 q 703 -17 771 -17 q 601 -11 657 -17 q 485 12 544 -6 q 369 60 426 29 q 268 142 313 92 q 265 134 265 138 q 261 128 264 131 q 258 138 258 132 q 257 150 258 143 q 249 164 251 156 q 246 153 246 161 q 246 161 246 157 q 243 172 246 165 q 240 163 240 168 q 240 150 240 157 q 240 164 240 157 q 238 178 240 171 q 235 165 235 171 q 235 153 235 160 l 235 154 l 233 154 q 231 155 232 154 q 229 156 231 156 q 225 156 224 156 q 226 153 226 156 q 226 177 226 165 q 221 200 225 189 q 210 222 218 207 q 192 256 201 238 q 173 295 182 275 q 161 332 164 315 q 167 332 164 332 q 175 335 171 332 l 175 344 q 168 346 172 346 q 160 346 164 346 q 154 349 157 346 q 150 358 151 351 l 69 358 l 61 475 q 63 504 61 479 q 65 546 64 529 q 65 563 65 553 q 66 584 65 574 q 70 602 67 594 q 82 613 74 610 l 82 815 l 179 815 q 183 821 182 818 q 186 826 183 824 q 180 828 183 829 q 172 828 176 828 q 175 841 175 835 q 175 854 175 847 q 189 853 182 854 q 200 858 196 853 q 211 872 204 863 q 226 892 218 881 q 243 916 235 903 q 257 940 251 929 q 259 963 260 944 q 258 996 258 981 l 293 996 q 296 988 296 993 q 299 981 296 983 q 399 1049 346 1024 q 507 1089 453 1075 q 615 1107 561 1103 q 721 1111 669 1111 q 858 1104 783 1111 q 1005 1067 933 1097 q 1135 975 1076 1038 q 1222 803 1194 913 l 1018 767 q 1005 772 1013 765 q 993 778 997 778 l 883 778 q 857 816 875 799 q 817 846 839 833 q 772 865 794 858 q 735 872 750 872 l 717 872 l 717 683 q 719 678 717 678 q 724 676 722 679 q 726 651 726 664 q 725 626 725 639 l 999 625 q 1020 615 1007 622 q 1043 606 1033 607 q 1097 603 1071 601 q 1151 603 1124 604 l 1054 603 q 1053 599 1051 600 q 1058 599 1056 599 l 969 558 q 978 551 971 553 q 993 551 985 550 q 1010 553 1001 551 q 1024 554 1018 554 q 1076 556 1046 556 q 1135 558 1107 557 q 1185 560 1164 560 q 1208 561 1206 561 q 1219 560 1213 561 q 1229 560 1225 560 q 1232 555 1229 558 q 1239 551 1235 551 l 1239 450 m 944 449 l 889 449 l 881 342 l 936 342 l 936 439 q 940 444 939 442 q 944 449 942 446 m 1108 215 q 748 215 928 215 q 388 217 568 215 q 383 222 385 219 q 381 226 381 224 l 301 226 q 295 235 299 232 q 292 242 292 238 l 292 333 l 506 333 q 556 277 529 299 q 609 243 582 256 q 664 226 636 231 q 718 222 692 222 q 831 241 772 222 q 936 292 889 260 l 936 314 l 872 314 l 883 450 l 717 450 l 717 599 q 714 604 717 604 q 708 607 711 604 l 708 632 q 708 643 708 638 q 708 656 707 649 q 713 657 711 658 q 714 661 714 656 l 714 872 l 685 872 q 641 865 665 872 q 593 844 617 857 q 549 815 569 832 q 517 778 529 797 l 374 778 q 369 772 371 775 q 364 765 367 768 q 371 757 368 761 q 376 750 374 753 q 446 750 421 750 q 483 750 471 750 q 499 750 496 750 q 503 749 501 750 q 474 653 481 704 q 467 550 467 603 q 467 536 467 547 q 469 510 468 525 q 470 480 469 496 q 471 451 471 464 l 468 450 l 285 450 l 285 515 q 285 483 285 499 q 282 451 285 467 q 278 445 281 447 q 275 440 276 443 q 274 422 274 432 q 276 404 274 411 q 284 378 286 397 q 282 349 282 360 q 278 346 281 346 q 274 346 275 346 q 272 340 272 343 q 269 333 272 336 q 276 333 272 333 q 283 331 281 333 q 281 318 283 324 q 278 308 278 313 l 278 219 q 280 213 278 214 q 278 208 282 211 l 1108 215 m 229 172 l 229 193 l 224 193 l 224 172 l 229 172 m 235 158 l 235 185 l 229 185 l 229 158 l 235 158 m 500 347 l 286 347 l 286 401 l 483 401 q 491 374 486 389 q 500 347 496 360 z "},"H":{"ha":1172,"x_min":15,"x_max":1188,"o":"m 1110 -4 l 771 -4 l 771 219 l 919 219 q 924 195 922 207 q 931 169 926 183 l 1110 169 l 1110 103 l 935 103 l 935 88 l 1110 88 l 1110 -4 m 1110 874 l 1007 874 l 1007 793 l 1110 793 l 1110 765 l 771 765 l 771 792 l 788 792 l 788 871 q 780 874 785 874 q 771 874 775 874 l 771 1083 l 1110 1083 l 1110 874 m 810 553 l 775 518 l 646 518 q 651 535 649 526 q 657 553 654 544 l 810 553 m 1188 326 q 1167 249 1175 289 l 1111 249 q 1110 224 1107 238 l 965 224 q 965 230 965 226 q 960 238 964 233 l 857 238 l 857 249 l 957 249 l 958 249 l 958 250 q 960 253 960 251 q 936 276 960 276 l 860 276 q 860 285 860 281 q 858 293 861 290 q 853 271 850 285 q 850 246 856 257 l 850 293 q 846 271 847 282 q 842 249 844 260 q 845 290 844 269 q 840 326 846 311 l 674 326 q 678 362 676 343 q 682 397 679 381 l 771 397 l 771 435 l 618 435 l 638 496 l 743 496 q 753 505 747 500 q 764 511 760 510 q 772 511 767 513 q 779 513 776 510 q 802 533 790 521 q 826 558 814 544 l 660 558 q 665 574 663 565 q 671 590 667 582 l 197 590 l 196 588 l 196 572 q 199 569 199 569 q 206 568 200 568 l 647 569 q 646 563 649 567 q 639 560 643 560 l 194 557 q 203 551 194 551 l 643 553 q 631 518 638 533 l 196 513 l 469 513 q 476 510 472 513 q 483 507 479 507 l 578 507 q 601 494 586 492 q 624 494 615 497 q 617 473 621 483 q 608 451 613 463 l 197 451 q 197 447 194 449 q 201 444 199 444 q 192 440 197 442 q 179 433 186 438 q 183 432 181 432 q 197 432 186 432 q 228 432 207 432 q 286 432 249 432 q 290 422 289 428 q 294 411 292 417 l 400 411 l 400 -4 l 65 -4 l 65 99 l 15 125 q 33 133 24 129 q 54 144 43 138 q 36 156 46 151 q 15 167 26 160 l 54 186 q 36 197 46 193 q 15 208 26 201 q 32 217 24 213 q 54 228 40 221 q 33 240 43 235 q 15 250 24 246 q 41 262 28 256 q 65 275 54 268 l 65 432 l 156 432 q 169 438 161 432 q 185 447 176 443 q 183 451 182 450 q 178 451 183 451 l 65 451 l 65 517 l 179 517 q 175 518 178 518 q 161 518 172 518 q 127 517 150 518 q 65 515 104 517 l 65 542 l 74 553 q 131 552 110 553 q 162 551 151 551 q 175 552 172 551 q 179 556 178 553 l 176 557 q 122 560 153 560 q 65 557 90 560 l 65 568 l 179 568 l 179 589 l 65 589 l 65 1083 l 401 1083 l 401 704 l 769 704 l 769 747 l 1110 747 l 1110 326 l 1188 326 m 772 343 l 767 343 l 767 369 l 772 369 l 772 343 m 842 303 l 838 246 l 833 246 l 836 303 l 842 303 m 836 303 l 829 246 l 825 246 l 831 303 l 836 303 m 828 303 l 821 246 l 817 246 l 822 303 l 828 303 m 819 303 l 815 246 l 811 246 l 814 303 l 819 303 m 811 304 q 808 276 808 293 q 806 246 807 258 q 807 276 806 261 q 811 304 808 292 m 806 303 l 799 246 l 794 246 l 800 303 l 806 303 m 794 304 q 793 277 794 292 q 792 247 792 263 q 792 274 792 260 q 794 304 792 289 m 775 282 l 769 282 l 769 303 l 775 303 l 775 282 m 789 303 l 785 246 l 781 246 l 783 303 l 789 303 m 783 303 l 776 246 l 772 246 l 778 303 l 783 303 m 899 793 l 899 872 l 871 872 l 871 793 l 899 793 m 854 793 l 854 872 l 813 872 l 813 793 l 854 793 m 767 382 q 764 368 764 375 q 761 354 764 361 q 758 367 758 361 q 758 381 758 374 q 757 362 758 372 q 756 344 756 351 q 758 351 756 349 q 761 343 761 349 q 763 363 763 350 q 767 382 764 375 m 756 381 l 750 381 l 747 343 l 751 343 l 756 381 m 747 382 q 744 368 744 375 q 742 354 744 361 q 739 368 739 361 q 739 382 739 375 q 738 362 739 372 q 736 344 736 351 q 739 351 736 349 q 742 343 742 349 q 744 363 743 350 q 747 382 744 375 m 736 381 l 731 381 l 728 343 l 732 343 l 736 381 m 728 382 q 725 371 725 378 q 722 357 725 364 q 719 368 719 364 q 719 379 719 372 q 717 368 719 369 q 714 376 714 372 q 714 382 714 379 q 711 364 711 375 q 711 344 711 353 q 714 365 711 360 q 717 354 717 358 q 717 346 717 350 q 719 354 717 351 q 722 349 722 351 q 722 343 722 346 q 725 362 725 351 q 728 382 725 372 m 710 381 l 706 381 l 700 343 l 704 343 l 710 381 m 703 381 l 697 381 l 694 343 l 699 343 l 703 381 m 563 501 l 551 504 l 551 500 l 561 497 l 563 501 m 694 382 q 691 363 692 374 q 689 346 690 353 q 693 363 692 353 q 694 382 694 374 m 550 497 l 550 501 l 538 504 l 538 500 l 550 497 m 396 403 l 385 403 q 388 393 386 399 q 394 385 390 388 q 397 394 397 389 q 396 403 396 399 m 381 385 q 380 396 381 392 q 379 403 379 400 l 368 403 q 372 393 368 399 q 381 385 376 388 m 367 385 q 366 394 367 389 q 365 403 365 399 l 351 403 q 358 392 356 397 q 367 385 361 388 z "},"I":{"ha":517,"x_min":51,"x_max":446,"o":"m 446 474 l 432 336 l 343 336 q 347 335 344 335 q 360 335 350 335 q 390 337 371 336 q 446 338 410 338 l 446 8 l 108 8 l 108 144 q 83 120 96 133 q 58 94 71 107 q 55 128 58 110 q 58 157 51 146 q 80 185 65 172 q 110 213 94 197 l 108 242 l 58 189 q 55 222 58 204 q 58 251 51 240 q 82 282 67 269 q 110 310 97 294 l 108 336 l 58 283 q 56 317 58 299 q 58 346 53 335 q 81 376 65 364 q 110 404 97 389 l 108 431 l 58 378 q 56 411 58 393 q 58 440 53 429 q 81 471 65 458 q 110 499 97 483 l 108 525 l 58 472 q 55 505 58 488 q 58 538 51 522 q 81 566 65 554 q 110 593 97 578 l 108 619 q 84 595 97 608 q 58 567 71 582 q 55 599 58 582 q 58 632 51 617 q 80 660 65 649 q 110 688 94 672 l 108 714 q 84 690 97 703 q 58 661 71 676 q 55 694 58 676 q 58 726 51 711 q 79 750 61 733 q 110 782 97 767 q 111 792 113 785 q 111 806 110 799 q 137 813 126 801 q 163 838 147 824 l 161 867 l 58 758 q 55 792 58 774 q 58 821 51 810 q 83 853 67 839 q 115 882 100 867 q 112 891 113 885 q 108 906 111 897 l 58 853 q 58 885 58 868 q 58 915 57 901 q 67 924 58 915 q 84 943 75 932 q 101 965 93 954 q 110 979 110 975 l 110 1097 l 446 1097 l 446 886 l 432 886 q 430 863 428 876 q 435 836 432 849 q 442 814 439 824 q 446 804 446 804 l 446 778 l 167 778 l 151 763 l 446 763 l 446 474 m 435 806 q 428 853 431 836 q 424 886 426 869 l 396 886 l 410 806 l 435 806 m 404 806 l 390 886 l 365 886 q 371 845 368 865 q 376 806 374 825 l 404 806 m 371 806 l 360 886 l 332 886 l 346 806 l 371 806 m 340 806 l 326 886 l 301 886 q 308 842 306 861 q 313 806 310 822 l 340 806 m 307 806 q 301 853 303 836 q 296 886 299 869 l 268 886 l 282 806 l 307 806 m 276 806 l 263 886 l 238 886 q 244 842 242 861 q 249 806 246 822 l 276 806 m 243 806 q 237 849 239 829 q 232 886 235 869 l 204 886 l 218 806 l 243 806 z "},"J":{"ha":992,"x_min":57,"x_max":1050,"o":"m 918 888 l 835 888 l 835 1015 l 579 1007 l 579 1101 l 918 1101 l 918 888 m 918 782 l 829 782 l 829 807 l 918 807 l 918 782 m 825 888 l 729 888 q 728 870 728 881 q 731 849 728 860 l 579 849 l 579 915 l 825 935 l 825 888 m 824 767 l 811 446 l 579 446 l 579 717 q 543 717 561 719 l 543 793 l 578 793 q 578 846 581 819 l 729 846 l 729 808 l 824 808 l 824 781 l 596 781 l 596 767 l 824 767 m 538 722 q 533 720 536 721 q 523 719 531 719 q 501 718 515 718 q 465 718 488 718 q 469 754 468 735 q 474 793 471 774 l 538 793 q 535 767 535 782 q 532 739 535 751 q 533 738 532 738 q 536 736 535 736 q 538 731 538 735 q 538 722 538 726 m 1050 719 q 1041 719 1044 719 q 1033 718 1038 718 q 1021 680 1026 699 q 1011 640 1015 661 l 918 640 l 918 469 q 915 394 918 433 q 907 320 913 356 q 893 254 901 285 q 875 203 885 224 q 795 93 842 135 q 697 29 749 51 q 590 0 644 7 q 488 -7 536 -7 q 386 -1 442 -7 q 275 25 331 6 q 172 81 219 44 q 93 179 124 118 l 329 179 l 329 199 l 82 199 l 57 279 l 347 279 q 356 240 353 261 q 369 199 358 218 l 560 199 q 579 269 571 235 q 596 340 588 304 q 611 339 603 339 q 626 342 619 339 q 600 344 614 344 q 574 340 586 343 q 575 357 574 351 q 576 365 576 363 l 701 365 l 701 294 q 715 286 704 282 q 740 285 726 290 l 740 257 l 736 257 q 733 240 733 250 q 733 218 733 229 q 733 240 731 229 q 728 260 735 251 l 725 257 q 723 224 722 242 q 726 185 724 206 q 728 183 726 183 q 732 182 729 182 q 736 196 736 188 q 739 182 736 188 q 742 190 742 185 l 742 154 l 799 154 q 801 174 800 158 q 804 209 803 190 q 806 243 806 228 q 807 261 807 258 l 807 347 q 810 357 807 351 q 814 367 813 363 q 816 386 817 375 q 818 408 815 397 l 826 765 l 918 765 l 918 721 l 1050 719 m 365 343 l 74 343 q 68 362 71 350 q 63 382 65 374 l 365 424 q 364 387 363 407 q 365 343 365 367 m 590 776 l 588 776 l 583 767 l 588 765 l 590 776 m 582 765 l 582 776 l 578 776 l 578 765 l 582 765 m 576 776 l 572 776 l 567 738 l 571 738 l 576 776 m 581 738 l 581 763 l 575 763 l 575 738 l 581 738 m 569 776 l 564 776 l 560 738 l 564 738 l 569 776 m 563 776 l 558 776 l 553 738 l 557 738 l 563 776 m 554 776 l 550 776 l 544 738 l 549 738 l 554 776 m 533 776 l 528 776 l 524 738 l 528 738 l 533 776 m 526 776 l 522 776 l 517 738 l 521 738 l 526 776 m 518 776 l 514 776 l 508 738 l 513 738 l 518 776 m 511 776 l 506 776 l 503 738 l 507 738 l 511 776 m 504 776 l 500 776 l 494 738 l 499 738 l 504 776 m 497 776 l 492 776 l 488 738 l 492 738 l 497 776 m 490 776 l 486 776 l 481 738 l 485 738 l 490 776 z "},"K":{"ha":1250,"x_min":7,"x_max":1213,"o":"m 1196 1092 l 801 681 l 868 567 l 61 567 l 61 603 q 72 606 64 603 q 83 610 79 610 l 89 607 q 93 614 89 610 q 82 617 88 617 q 94 615 86 617 q 107 625 103 614 l 107 924 q 106 946 107 933 q 101 971 104 958 q 95 992 99 983 q 89 1003 92 1001 q 75 1005 82 1004 q 61 1006 68 1006 q 74 1006 68 1006 q 88 1008 81 1006 q 74 1010 81 1011 q 61 1010 68 1010 l 61 1092 l 399 1092 l 399 682 q 490 808 447 746 q 589 939 532 869 q 602 944 592 942 q 619 954 613 947 q 646 981 633 965 q 674 1011 658 996 l 679 1013 q 713 1052 694 1032 q 750 1092 731 1072 l 1196 1092 m 1213 4 l 800 4 l 682 231 l 829 231 q 837 201 833 217 q 843 171 840 186 l 1113 171 l 1213 4 m 1029 307 l 644 307 l 597 399 q 594 374 594 388 q 590 346 593 360 l 544 346 l 544 426 q 540 423 542 424 q 538 417 538 422 l 538 346 q 503 348 521 346 q 471 344 485 350 q 451 330 460 342 q 432 307 443 318 l 60 307 l 60 497 q 35 499 49 500 q 7 497 21 499 l 7 511 q 22 512 13 513 q 39 511 31 511 q 54 513 47 511 q 61 524 61 515 l 893 524 l 1029 307 m 626 286 l 331 286 l 331 290 l 626 290 l 626 286 m 57 346 l 51 346 l 51 481 l 57 481 l 57 346 m 50 346 l 44 346 l 44 481 l 50 481 l 50 346 m 43 346 l 38 346 l 38 481 l 43 481 l 43 346 m 35 346 l 29 346 l 29 481 l 35 481 l 35 346 m 26 346 l 21 346 l 21 481 l 26 481 l 26 346 m 19 346 l 14 346 l 14 481 l 19 481 l 19 346 m 13 346 l 7 346 l 7 481 l 13 481 l 13 346 m 443 254 l 397 254 l 397 4 l 61 4 l 61 254 l 8 254 l 8 267 q 30 262 15 260 q 56 263 44 264 q 61 268 61 263 l 389 268 q 395 267 394 268 q 399 263 396 265 q 421 262 406 261 q 443 254 436 263 m 829 182 q 825 204 826 194 q 821 219 824 214 l 807 219 q 813 200 810 211 q 819 182 815 189 l 829 182 m 807 182 q 801 201 804 190 q 796 219 799 213 l 779 219 q 785 199 782 208 q 792 182 789 189 l 807 182 m 782 182 q 777 201 779 190 q 771 219 775 213 l 757 219 l 757 211 q 761 197 757 206 q 769 182 765 189 l 782 182 z "},"L":{"ha":1039,"x_min":44,"x_max":986,"o":"m 108 688 q 105 676 110 682 q 96 667 100 671 l 96 700 q 104 694 101 694 q 105 733 101 714 q 108 776 108 753 l 108 688 m 94 431 q 76 412 88 424 q 68 389 64 400 q 89 408 81 397 q 94 431 97 419 m 94 406 q 75 388 85 393 q 68 364 65 383 q 89 383 78 372 q 94 406 100 394 m 986 -4 l 124 -4 l 124 29 q 102 31 114 32 q 81 32 90 31 q 66 53 75 39 q 57 72 57 67 l 57 258 q 78 281 68 269 q 99 308 88 293 l 96 342 q 84 330 92 338 q 68 317 76 322 l 68 329 q 80 344 68 335 q 99 363 92 354 l 99 364 q 97 367 99 365 q 85 353 93 360 q 68 339 76 347 q 74 362 64 354 q 94 381 83 369 q 94 376 94 378 q 96 372 93 375 l 96 611 l 96 443 q 85 429 93 436 q 68 418 76 422 l 68 431 q 82 444 75 436 q 93 461 89 453 l 90 794 l 97 789 l 99 789 q 101 790 100 789 q 94 799 97 796 q 88 806 90 801 q 99 803 93 800 l 88 814 l 94 808 l 96 808 q 99 810 97 808 l 88 822 l 94 817 l 96 817 q 99 818 97 817 l 88 831 l 94 825 l 96 825 q 99 826 97 825 l 88 838 l 88 889 q 99 876 97 883 q 101 862 101 869 q 101 847 101 854 q 104 833 100 839 q 107 845 107 839 q 107 857 107 851 q 106 873 107 869 q 102 878 104 876 q 97 884 100 881 q 88 899 93 888 q 83 917 83 906 q 83 939 82 928 q 84 958 83 950 q 85 969 85 967 q 88 998 85 985 q 121 1014 90 1011 q 121 1083 125 1049 l 461 1083 l 461 1007 l 344 1007 q 331 942 336 975 q 319 875 326 910 l 214 875 l 214 854 l 461 854 l 461 819 q 476 817 468 817 q 500 819 483 817 l 500 617 l 499 749 q 481 750 490 751 q 464 749 472 749 l 464 353 l 493 350 l 493 475 q 494 370 494 421 q 486 267 493 319 q 488 264 486 265 q 493 261 490 261 l 986 261 l 986 -4 m 499 485 l 494 485 l 494 611 l 499 611 l 499 485 m 51 250 l 49 149 l 44 149 l 47 250 l 51 250 m 594 139 q 535 139 557 139 q 503 139 514 139 q 489 138 492 139 q 485 136 486 138 q 485 124 485 129 q 482 111 485 118 l 453 111 q 450 124 450 118 q 450 133 450 129 q 443 135 447 133 q 439 139 439 136 l 242 139 q 234 161 238 150 q 228 183 231 172 l 215 183 l 215 169 q 218 160 215 164 q 222 151 221 156 q 224 122 224 136 q 224 92 224 107 l 426 92 q 432 61 429 76 q 438 35 435 46 l 569 35 q 594 139 578 89 l 594 139 m 411 21 l 411 33 l 213 33 l 210 21 l 411 21 z "},"M":{"ha":1389,"x_min":64,"x_max":1331,"o":"m 1331 38 q 1321 47 1326 42 q 1313 56 1315 51 l 1313 156 q 1303 163 1308 158 q 1294 171 1299 167 l 1294 3 l 1018 3 l 1018 765 q 1025 768 1024 765 q 1035 804 1029 788 q 1049 842 1042 821 q 1047 844 1046 844 q 1042 843 1047 843 q 1032 837 1036 843 q 1025 822 1028 831 q 1021 807 1022 814 q 1019 799 1019 800 q 1019 819 1018 808 q 1024 842 1021 831 q 1022 844 1021 844 q 1017 843 1022 843 q 1007 833 1013 843 q 997 809 1001 822 q 990 783 993 796 q 985 768 986 771 q 997 765 986 765 l 803 3 l 554 3 l 485 279 l 514 279 q 522 240 518 260 q 531 199 526 219 l 713 199 l 746 340 q 760 340 753 340 q 774 343 767 340 l 468 343 l 321 838 l 553 838 l 681 432 l 765 754 l 846 754 q 865 806 857 779 q 885 860 874 832 l 1224 860 l 1224 882 l 799 882 l 849 1090 l 1292 1090 l 1292 1022 q 1304 1006 1293 1017 q 1322 988 1315 996 l 1322 769 q 1308 761 1315 765 q 1293 750 1300 757 l 1293 301 q 1301 291 1296 296 q 1311 282 1307 286 q 1313 288 1314 285 q 1313 293 1313 290 q 1322 285 1317 289 q 1331 276 1328 281 l 1331 38 m 561 883 l 104 883 l 82 1011 q 65 1014 76 1014 l 65 1090 l 508 1090 l 561 883 m 342 344 l 263 344 q 254 377 258 361 q 243 411 250 393 l 118 411 l 118 476 q 65 476 93 479 l 65 754 l 342 754 l 342 344 m 110 446 l 104 378 l 100 378 l 106 446 l 110 446 m 99 433 q 97 404 100 422 q 90 374 93 386 q 93 418 93 403 q 93 446 93 433 q 99 440 97 443 q 99 433 101 436 m 71 446 l 68 419 l 64 419 l 67 446 l 71 446 m 86 446 q 86 412 86 435 q 79 374 86 389 q 83 415 82 399 q 86 446 83 431 m 78 446 q 74 378 78 417 l 68 374 l 68 386 q 72 413 68 392 q 78 446 75 433 m 342 3 l 65 3 l 65 340 l 197 340 q 203 310 200 325 q 208 279 206 296 l 340 279 l 340 199 l 219 199 l 219 178 l 342 178 l 342 3 m 1222 767 l 1219 771 q 1222 800 1222 783 q 1222 832 1222 817 q 1212 799 1218 815 q 1201 767 1206 782 l 1222 767 m 1214 843 l 1201 843 l 1176 767 l 1192 767 q 1204 804 1199 785 q 1214 843 1210 824 m 1192 843 l 1176 843 q 1164 805 1169 824 q 1154 767 1158 786 l 1167 767 l 1192 843 m 1167 843 l 1154 843 l 1129 767 l 1144 767 l 1167 843 m 1142 843 l 1129 843 l 1104 767 l 1119 767 q 1131 802 1126 782 q 1142 843 1135 822 m 1119 843 l 1104 843 l 1082 767 l 1094 767 l 1119 843 m 1094 843 l 1082 843 l 1057 767 l 1072 767 l 1094 843 m 1072 843 l 1057 843 l 1032 767 l 1050 767 q 1060 807 1054 788 q 1072 843 1065 826 m 1000 843 l 985 843 q 972 805 978 824 q 963 767 967 786 l 975 767 l 1000 843 m 975 843 l 963 843 l 938 767 l 953 767 q 963 805 957 786 q 975 843 968 824 m 950 843 l 938 843 l 913 767 l 928 767 q 940 804 935 785 q 950 843 946 824 m 928 843 l 913 843 l 890 767 l 903 767 l 928 843 m 903 843 l 890 843 l 865 767 l 881 767 l 903 843 m 1311 243 q 1303 253 1308 249 q 1293 263 1297 258 q 1301 250 1296 256 q 1311 243 1307 244 m 1311 190 l 1311 204 q 1303 212 1308 208 q 1293 218 1297 215 l 1293 208 l 1311 190 z "},"N":{"ha":1194,"x_min":43,"x_max":1188,"o":"m 1188 354 q 1175 301 1181 329 q 1163 244 1169 274 l 1128 244 l 1128 3 l 808 3 l 567 356 l 475 356 l 483 458 q 496 460 488 456 l 403 597 l 403 3 l 160 3 l 160 65 q 167 91 160 69 q 179 132 175 113 q 181 161 182 143 q 179 186 179 179 q 178 228 179 207 q 169 269 176 249 q 165 283 167 275 q 161 300 164 292 q 150 278 153 294 q 144 250 147 261 q 142 247 143 247 q 140 240 140 246 l 140 3 l 85 3 l 85 231 q 65 244 75 238 q 43 257 54 250 q 59 265 49 258 q 74 272 69 272 q 85 267 85 272 l 85 268 l 85 276 q 67 288 76 282 q 49 299 57 294 q 67 306 57 301 q 85 315 76 311 q 69 328 78 324 q 50 339 60 332 l 50 965 q 67 974 60 969 q 85 985 74 978 l 85 1092 l 143 1092 l 143 308 q 154 352 149 328 q 160 382 160 376 l 160 788 q 169 806 160 792 q 179 826 179 821 l 179 1043 q 186 1064 179 1049 q 197 1092 193 1079 l 399 1092 l 807 494 l 807 1092 l 1126 1092 l 1126 978 q 1114 978 1119 979 q 1101 976 1108 978 q 1094 959 1097 969 q 1090 943 1090 949 l 1090 510 q 1099 489 1090 499 q 1105 488 1101 488 q 1111 488 1108 489 l 1111 485 q 1112 483 1111 483 q 1113 481 1113 482 q 1104 481 1108 479 q 1096 476 1100 483 q 1115 472 1108 468 q 1116 465 1117 469 q 1115 456 1115 461 q 1117 448 1115 451 q 1126 443 1119 444 l 1126 414 l 757 414 q 753 410 754 411 q 751 401 751 408 q 756 374 751 393 q 772 356 761 356 q 787 370 783 356 q 797 397 790 385 l 810 397 q 804 379 810 389 q 801 356 799 369 q 815 371 811 356 q 822 397 818 386 l 838 397 q 831 378 835 386 q 829 356 826 371 q 842 371 839 357 q 850 396 844 385 l 865 396 q 859 378 863 389 q 851 357 856 368 l 851 356 l 856 356 q 864 361 860 356 q 871 374 868 367 q 875 388 874 381 q 878 397 876 394 l 890 397 q 885 379 890 389 q 882 356 879 369 q 897 372 896 357 q 906 397 897 386 l 918 397 q 911 378 915 386 q 910 356 907 371 q 922 371 921 356 q 931 396 924 386 l 946 396 q 940 378 943 389 q 932 360 936 367 l 938 356 q 949 370 944 354 q 958 396 954 386 l 971 396 q 965 377 968 388 q 963 354 963 367 q 976 368 972 353 q 986 397 979 383 l 999 397 q 993 379 999 389 q 990 356 988 369 q 1003 371 1000 356 q 1011 397 1007 386 l 1026 397 q 1019 378 1024 386 q 1018 356 1015 371 q 1031 371 1028 357 q 1039 396 1033 385 l 1054 396 q 1048 377 1050 388 q 1043 354 1046 367 q 1058 371 1056 356 q 1067 397 1060 386 l 1079 397 q 1074 379 1079 389 q 1071 356 1068 369 q 1085 372 1085 357 q 1094 397 1086 386 l 1107 397 q 1100 378 1104 386 q 1099 356 1096 371 q 1107 362 1104 357 q 1112 374 1110 367 q 1117 387 1114 381 q 1125 397 1119 393 q 1125 378 1126 389 q 1121 360 1124 368 q 1153 355 1136 353 q 1188 354 1171 357 m 542 381 l 542 393 l 538 393 l 538 381 l 542 381 m 536 404 l 532 404 l 528 381 l 533 381 l 536 404 m 528 415 l 524 415 l 519 381 l 525 381 l 528 415 m 517 431 q 514 405 514 418 q 513 381 514 392 q 516 406 515 393 q 517 431 517 419 m 511 435 l 507 435 l 501 381 l 507 381 l 511 435 m 503 435 l 499 435 l 492 381 l 497 381 l 503 435 z "},"O":{"ha":1276,"x_min":49,"x_max":1218,"o":"m 993 1092 l 963 1092 l 963 1121 l 993 1121 l 993 1092 m 1218 565 q 1193 353 1218 453 l 846 353 q 876 458 869 407 q 882 568 882 510 q 874 672 882 619 q 840 769 865 725 q 770 840 815 813 q 653 868 725 868 q 596 863 625 868 q 543 842 567 857 l 543 354 l 594 354 l 594 829 l 610 829 l 610 250 q 689 250 649 247 q 706 253 696 250 q 722 257 717 257 l 826 257 l 826 268 l 760 268 q 799 294 789 285 q 813 308 808 304 q 822 314 817 313 q 846 315 826 315 q 864 316 858 315 q 874 313 869 317 q 889 299 879 308 q 919 268 899 289 l 1160 268 q 1058 130 1117 183 q 932 47 999 76 q 797 6 865 17 q 664 -4 728 -4 q 642 -3 658 -4 q 611 -3 625 -3 l 611 -161 l 596 -161 l 596 -3 q 570 1 583 0 q 544 4 557 1 q 543 0 543 3 q 543 -15 543 -3 q 544 -51 543 -26 q 544 -119 544 -76 l 526 -119 l 526 6 q 526 1 526 4 q 526 -14 526 -1 q 527 -51 526 -26 q 528 -119 528 -76 l 493 -119 l 493 14 l 493 13 q 490 8 493 11 q 490 -53 490 -17 q 488 -121 489 -89 l 488 13 q 484 -54 485 -21 q 482 -121 483 -87 l 482 14 q 479 9 479 13 q 479 -7 479 6 q 480 -46 479 -19 q 482 -119 481 -72 l 465 -119 l 465 17 q 375 49 419 32 q 286 101 331 65 q 285 89 285 100 l 254 89 q 254 103 254 96 q 256 117 254 111 q 258 117 257 118 q 263 119 260 117 q 199 188 222 157 q 160 251 176 218 q 167 252 161 251 q 178 257 172 253 l 201 257 q 203 238 200 251 l 218 238 q 222 254 222 246 q 225 238 222 243 l 244 240 l 244 306 l 222 306 l 222 268 l 221 306 l 200 306 q 200 269 203 288 l 149 269 q 142 285 146 278 q 133 301 138 293 q 128 297 131 299 q 121 294 125 294 q 123 300 121 297 q 122 307 125 303 q 118 294 115 303 l 110 294 q 106 294 104 293 q 106 299 108 296 l 104 297 l 104 294 l 93 294 q 98 302 96 299 q 97 310 100 306 q 92 303 93 307 q 89 294 92 299 q 81 299 85 294 q 78 294 78 297 q 75 286 78 290 l 49 286 q 53 299 53 289 q 53 319 54 308 q 51 341 53 331 q 49 357 49 351 l 49 717 q 50 743 49 722 q 54 779 51 764 q 85 779 69 779 q 118 781 101 779 q 135 817 128 799 q 151 853 143 835 q 158 855 154 856 q 165 854 161 854 q 167 869 168 860 q 169 885 165 878 q 273 1007 211 960 q 402 1080 335 1054 q 535 1115 469 1106 q 653 1124 601 1124 q 747 1119 703 1124 q 836 1104 792 1115 q 864 1096 847 1101 q 897 1084 881 1090 q 924 1073 913 1078 q 939 1068 936 1068 q 942 1071 944 1068 q 946 1074 940 1074 l 993 1074 q 994 1057 993 1067 q 996 1040 996 1047 q 1017 1025 1003 1033 q 1039 1015 1031 1017 q 1063 987 1049 1004 q 1090 953 1076 969 q 1115 924 1104 936 q 1128 913 1125 913 q 1131 914 1133 913 q 1135 915 1129 915 q 1140 914 1140 915 q 1142 910 1139 913 l 1142 911 q 1142 913 1142 913 q 1143 915 1143 914 l 1154 915 q 1149 908 1151 913 q 1150 899 1147 903 q 1155 907 1154 903 q 1157 915 1156 911 q 1167 910 1161 915 q 1168 916 1168 913 q 1171 924 1168 919 l 1199 924 q 1194 911 1194 921 q 1194 890 1193 901 q 1197 869 1196 879 q 1199 854 1199 858 l 1199 742 q 1203 724 1199 738 q 1208 699 1207 710 q 1215 632 1211 667 q 1218 565 1218 597 m 1167 897 l 1167 904 l 1161 904 l 1161 897 l 1167 897 m 1142 903 l 1142 910 l 1136 910 l 1136 903 l 1142 903 m 1167 861 l 1167 888 l 1161 888 l 1161 861 l 1167 861 m 531 825 l 531 832 l 525 832 l 525 825 l 531 825 m 464 760 q 434 658 442 713 q 428 554 426 603 q 440 607 435 579 q 451 658 446 635 q 462 708 457 682 q 464 760 467 735 m 464 369 l 464 643 l 458 643 l 458 369 l 464 369 m 531 286 l 531 463 l 525 463 l 525 286 l 531 286 m 172 667 l 172 726 l 167 726 l 167 667 l 172 667 m 596 257 l 596 313 l 543 313 l 543 257 q 596 257 569 260 m 301 239 l 301 304 q 292 301 294 304 l 292 921 q 272 918 281 918 q 260 915 264 918 l 260 510 q 250 497 251 504 q 249 480 249 489 q 249 460 249 471 q 246 436 250 449 q 251 435 249 436 q 258 435 253 435 q 269 441 264 435 q 281 450 274 447 l 281 236 q 294 238 290 236 q 301 239 299 239 m 497 314 l 497 338 l 492 338 l 492 314 l 497 314 m 140 693 l 121 693 l 121 681 l 136 681 l 140 693 m 489 317 l 489 338 l 483 338 l 483 317 l 489 317 m 483 317 l 483 338 l 478 338 l 478 317 l 483 317 m 531 258 l 531 268 l 525 268 l 525 258 l 531 258 m 497 268 l 493 268 l 489 258 l 493 257 l 497 268 m 489 258 l 489 268 l 483 268 l 483 258 l 489 258 m 483 258 l 483 268 l 478 268 l 478 258 l 483 258 m 465 317 l 465 338 q 460 351 460 340 q 456 347 457 351 q 451 338 454 342 l 315 338 l 315 317 l 465 317 m 246 481 l 246 490 q 235 479 242 489 q 228 464 228 469 l 246 481 m 225 431 l 225 468 l 219 468 l 219 431 l 225 431 m 199 453 l 199 518 l 172 518 l 172 453 l 199 453 m 465 258 l 465 268 l 315 268 l 315 258 l 465 258 m 211 392 q 213 415 213 396 q 212 455 213 433 q 210 494 211 476 q 208 515 210 513 q 210 511 208 513 q 206 510 211 510 q 201 513 201 510 l 201 515 l 201 376 q 206 393 200 383 l 210 393 q 211 392 211 393 m 139 453 l 139 518 l 121 518 l 121 453 l 139 453 m 279 253 l 279 265 l 251 265 l 249 253 l 279 253 m 240 317 q 188 319 207 318 q 160 322 169 321 q 147 324 150 324 q 143 326 144 325 q 140 352 140 339 q 142 376 140 365 l 85 376 l 85 365 q 135 365 111 368 q 133 327 135 335 q 135 317 132 319 l 240 317 m 86 322 l 86 349 l 81 349 l 81 322 l 86 322 m 111 300 l 111 307 l 106 307 l 106 300 l 111 300 m 86 306 l 86 313 l 81 313 l 81 306 l 86 306 z "},"P":{"ha":1074,"x_min":-1,"x_max":1015,"o":"m 1015 751 q 1010 685 1015 719 q 993 618 1004 651 q 964 555 982 585 q 921 500 946 525 l 921 599 l 871 599 l 871 483 q 899 481 883 478 q 881 468 892 475 q 860 455 871 461 q 842 444 850 449 q 832 440 835 440 l 90 440 l 90 481 l 485 481 l 485 597 l 90 597 l 90 658 q 53 658 72 661 l 53 933 l 89 933 l 89 1086 l 671 1086 q 733 1081 699 1086 q 794 1068 767 1075 q 903 1016 861 1050 q 971 938 946 982 q 1006 846 996 894 q 1015 751 1015 797 m 456 551 l -1 551 l -1 568 l 456 568 l 456 551 m 50 735 l 13 735 l 13 750 l 50 750 l 50 735 m 757 417 q 730 411 746 414 q 699 406 714 408 q 672 403 683 404 q 657 401 660 401 l 429 401 l 429 88 q 398 75 414 81 q 365 63 382 69 q 364 29 364 46 q 364 -4 364 13 l 90 -4 l 90 331 q 54 331 72 333 l 54 350 l 89 350 l 89 417 l 757 417 m 833 482 l 833 597 l 754 597 l 754 482 l 833 482 m 688 742 q 662 819 688 786 q 583 860 636 851 q 568 863 576 861 q 554 864 560 864 l 429 864 l 429 751 q 443 749 440 751 l 443 735 l 394 735 l 394 828 q 386 842 382 829 q 390 860 390 856 l 390 953 q 384 969 390 960 q 389 983 378 979 l 371 983 l 371 639 l 429 639 l 429 621 l 518 621 q 567 624 539 621 q 623 640 596 628 q 669 677 650 653 q 688 742 688 701 m 706 483 l 706 597 l 542 597 l 542 483 l 706 483 z "},"Q":{"ha":1276,"x_min":-53,"x_max":1236,"o":"m 1194 563 q 1188 589 1192 575 q 1179 615 1183 603 l 1154 615 q 1137 615 1144 615 q 1128 614 1129 615 q 1142 562 1133 596 q 1158 499 1150 528 q 1175 498 1167 497 q 1192 499 1183 499 q 1190 469 1192 478 q 1192 457 1189 461 l 854 457 q 854 499 856 488 l 986 499 l 986 615 l 856 615 q 788 804 851 740 q 628 868 725 868 q 588 864 611 868 q 542 851 565 860 q 497 826 519 842 q 458 786 475 810 q 473 784 465 783 q 489 782 481 785 l 489 768 q 468 768 478 768 q 447 767 458 768 q 431 738 435 753 q 426 706 426 722 q 422 703 425 704 q 417 699 419 701 q 410 668 414 686 q 406 644 406 650 l 406 625 l 664 625 l 664 607 l 339 607 q 338 615 339 614 l 67 615 q 133 858 81 761 q 262 1014 185 956 q 434 1097 339 1072 q 629 1121 529 1121 q 657 1122 644 1121 q 685 1122 669 1122 q 724 1118 701 1121 q 782 1108 747 1115 q 848 1093 811 1103 q 923 1065 885 1083 q 1000 1018 961 1046 q 1075 949 1039 990 q 1150 822 1126 889 q 1185 692 1174 756 q 1186 683 1186 689 q 1188 672 1186 676 q 1190 650 1190 661 q 1192 628 1192 640 q 1193 606 1192 617 q 1194 597 1193 604 q 1194 589 1194 590 l 1194 563 m 656 768 l 619 768 l 619 783 l 656 783 l 656 768 m 525 776 q 523 772 525 772 q 519 767 521 771 q 517 753 518 763 q 518 725 515 744 q 519 692 519 710 q 515 657 518 674 l 515 797 q 520 786 515 790 q 525 776 525 782 m 1236 81 l 1143 -107 q 1103 -88 1128 -101 q 1060 -64 1078 -75 q 1015 -35 1040 -53 q 966 1 989 -17 q 926 31 943 18 q 906 43 908 43 q 892 39 904 43 q 863 28 879 35 q 830 17 847 22 q 801 10 813 11 q 755 3 774 6 q 718 -1 736 0 q 680 -3 700 -3 q 631 -4 660 -4 q 455 14 542 -4 q 293 80 368 32 q 161 211 218 128 q 75 425 104 294 l 75 435 l 282 435 q 284 436 285 438 q 283 440 283 435 q 277 453 283 450 q 263 457 271 457 q 247 456 254 457 q 235 454 239 454 q 91 455 164 454 q -53 456 18 456 q -12 455 -35 457 q 28 461 11 453 q 32 503 31 482 q 36 554 33 524 l 203 554 l 203 504 l 322 504 q 327 503 328 504 q 329 499 326 501 l 406 499 q 407 476 407 488 q 414 457 407 465 q 432 456 422 456 q 449 457 442 457 q 638 456 543 457 q 828 456 732 456 q 817 455 821 456 q 806 453 813 454 q 792 412 799 433 q 781 369 785 390 q 799 357 789 363 q 815 346 808 351 q 837 388 831 365 q 847 435 843 411 l 1186 435 q 1151 305 1175 369 q 1078 175 1128 240 q 1156 119 1111 146 q 1236 81 1200 93 m 1144 503 l 1117 615 l 1067 615 l 1092 499 l 1140 499 l 1144 503 m 589 394 q 588 403 589 400 q 586 410 586 407 l 419 410 q 431 378 425 393 q 443 351 436 364 q 511 351 486 351 q 549 351 536 351 q 564 351 561 351 q 568 349 567 350 q 581 373 572 357 q 589 394 589 389 m 694 256 q 669 273 689 260 q 627 299 650 286 q 583 324 604 313 q 554 335 563 335 l 453 335 q 491 294 469 311 q 536 266 513 276 q 584 251 560 256 q 631 246 608 246 q 658 249 636 246 q 694 256 681 251 m 196 532 l 190 532 l 188 501 l 193 501 l 196 532 m 185 532 q 180 526 182 529 q 178 519 178 524 l 178 499 q 185 532 185 513 m 174 532 q 171 519 171 528 q 169 499 171 510 q 173 516 172 507 q 174 532 174 525 m 167 532 q 161 516 163 525 q 160 499 160 507 q 163 516 163 507 q 167 532 164 525 m 157 532 l 151 532 l 147 499 l 153 499 l 157 532 m 144 524 q 143 529 146 525 l 140 532 l 140 499 q 142 501 142 500 q 143 503 142 501 q 144 506 143 504 l 144 524 m 132 532 q 131 518 132 525 q 129 499 129 511 q 133 517 132 507 q 132 532 135 528 m 126 501 l 126 532 l 121 532 l 121 501 l 126 501 m 115 532 q 110 526 113 529 q 108 519 108 524 l 108 499 q 115 532 115 513 m 107 532 l 101 532 l 97 499 l 103 499 l 107 532 m 97 532 q 90 517 89 528 q 90 499 92 507 q 94 516 93 507 q 97 532 94 525 m 88 532 l 82 532 l 78 499 l 83 499 l 88 532 m 75 524 q 74 529 76 525 l 71 532 l 71 499 q 72 501 72 500 q 74 503 72 501 q 75 506 74 504 l 75 524 m 63 532 q 60 507 60 519 q 58 479 60 494 q 63 509 61 494 q 63 532 65 524 m 57 532 l 51 532 l 46 479 l 51 479 l 57 532 m 71 479 l 71 490 l 65 490 l 65 479 l 71 479 z "},"R":{"ha":1203,"x_min":57,"x_max":1182,"o":"m 1096 790 q 1094 761 1096 785 q 1089 722 1092 738 q 1078 683 1086 706 q 1061 640 1071 660 q 1050 622 1057 633 q 1036 601 1043 611 q 1021 584 1031 594 q 1002 565 1011 574 q 985 549 993 556 q 975 543 978 543 l 154 543 q 150 565 151 551 q 145 588 149 578 q 135 604 142 599 q 113 604 128 610 l 110 690 q 103 686 106 688 q 96 682 100 685 l 96 289 q 111 279 101 283 l 111 424 l 451 424 l 451 3 l 217 3 q 214 -12 214 -4 q 214 -26 214 -19 q 200 -13 208 -19 q 185 1 192 -7 l 113 1 l 113 143 q 86 163 100 154 q 57 183 72 172 q 69 194 61 188 q 82 201 76 201 q 95 194 86 201 q 111 185 104 188 l 113 186 l 113 194 q 88 214 100 206 q 63 231 75 222 q 76 240 69 235 q 89 246 83 246 q 99 241 93 246 q 111 232 104 236 l 113 233 l 113 242 q 88 257 100 249 q 63 274 75 265 l 63 953 q 88 969 76 961 q 113 986 100 978 l 113 1093 l 711 1093 q 737 1091 715 1093 q 775 1088 758 1089 q 917 1063 857 1086 q 1017 999 978 1039 q 1076 905 1057 958 q 1096 790 1096 851 m 1182 1 l 804 1 q 749 101 778 49 q 693 204 721 153 q 640 301 665 256 q 594 382 614 347 q 578 404 589 393 q 557 424 567 415 l 936 424 q 951 413 940 424 q 968 393 961 401 q 992 363 979 379 q 1014 331 1004 347 q 1099 167 1058 250 q 1182 1 1140 85 m 968 539 q 902 505 933 515 q 835 483 871 494 q 874 466 854 475 q 913 446 893 457 l 113 446 l 113 490 l 117 488 l 158 488 q 166 497 165 492 q 165 508 167 501 q 160 522 163 514 q 157 539 157 529 l 968 539 m 757 765 q 738 828 757 797 q 669 865 718 858 q 657 869 663 867 q 647 871 651 871 l 451 871 l 451 796 l 300 796 q 292 818 296 807 q 286 840 289 829 l 201 840 l 201 793 q 226 794 214 793 q 249 792 238 794 q 258 771 256 785 q 260 749 260 757 l 446 749 q 451 733 451 742 q 451 718 451 724 q 451 703 451 711 q 446 688 451 694 l 268 688 l 268 672 l 451 672 l 451 651 l 614 651 q 629 654 618 651 q 647 658 640 657 q 729 693 701 665 q 757 765 757 721 z "},"S":{"ha":1068,"x_min":-179,"x_max":1019,"o":"m 101 1078 l 94 1078 l 94 1082 l 101 1082 l 101 1078 m 1019 360 q 1019 347 1019 357 q 1017 325 1018 338 q 1013 299 1015 313 q 1010 276 1011 286 q 1001 249 1007 264 q 989 218 994 233 q 956 158 979 189 q 903 101 933 128 q 841 53 874 74 q 782 25 808 33 q 772 16 774 22 q 770 3 769 10 q 772 -12 771 -4 q 771 -24 772 -19 l 608 -24 q 610 -15 608 -19 q 606 -10 611 -10 q 592 -10 603 -10 q 568 -11 581 -11 q 545 -12 556 -11 q 532 -12 535 -12 q 371 -1 453 -12 q 219 48 289 10 q 98 159 149 86 q 31 356 47 232 l 31 364 l 351 383 q 359 333 350 361 q 386 278 368 304 q 428 232 404 251 q 482 208 453 213 q 497 204 488 207 q 513 201 507 201 l 553 201 q 554 231 556 215 q 553 263 553 246 q 518 263 538 268 l 518 328 l 414 328 q 411 394 413 356 q 407 468 410 432 q 319 500 367 483 q 231 542 271 517 l 406 544 l 226 546 q 151 595 181 565 q 104 659 122 625 q 79 728 86 693 q 72 793 72 763 q 72 815 72 797 q 75 844 72 832 q 72 856 82 851 l 99 856 l 99 1049 l 222 1049 q 249 1060 228 1049 q 283 1078 271 1072 q 409 1107 349 1101 q 531 1113 469 1113 q 636 1108 579 1113 q 749 1087 693 1104 q 856 1033 806 1069 q 942 931 906 996 q 950 912 943 928 q 964 876 957 896 q 977 834 971 856 q 983 800 983 813 l 983 788 l 667 771 q 663 786 664 778 q 661 800 661 794 q 665 823 661 806 q 672 856 668 840 q 685 856 679 856 q 697 858 690 856 q 663 860 682 861 q 629 860 644 860 q 569 901 601 892 q 501 910 538 910 q 470 909 483 910 q 433 896 457 908 q 437 858 435 876 q 443 821 439 839 q 466 819 454 819 q 490 819 478 819 q 492 797 490 808 q 490 771 493 785 l 651 771 q 656 742 654 760 q 658 708 658 724 q 707 690 682 694 q 757 675 732 685 q 830 643 796 660 q 900 601 864 626 l 744 601 q 744 546 742 575 l 408 543 l 743 543 l 743 488 l 993 488 q 999 471 996 481 q 1004 449 1001 461 l 496 449 q 462 456 490 449 q 410 468 433 464 l 410 454 l 454 454 q 455 426 454 440 q 456 400 456 413 q 489 400 471 396 l 489 361 l 536 361 l 536 417 l 556 417 l 556 203 q 570 201 563 200 q 586 203 578 203 q 590 217 589 210 q 592 233 592 225 l 604 233 q 604 222 604 226 q 607 210 604 217 l 607 375 q 667 375 638 371 q 649 394 661 385 q 625 409 638 403 q 601 419 613 415 q 583 425 589 424 l 1018 425 l 1015 421 q 1017 385 1015 406 q 1019 360 1019 365 m 94 900 l 92 885 l 88 885 l 90 900 l 94 900 m -175 4 l -179 4 l -179 17 l -175 17 l -175 4 m 535 735 l 535 744 l 481 744 q 482 740 481 742 q 483 735 483 738 l 535 735 m 432 763 l 432 875 l 403 875 q 392 865 396 869 q 381 858 388 860 q 378 846 381 847 l 360 846 q 356 853 357 849 q 353 860 356 857 l 353 804 q 369 805 361 804 q 386 803 378 806 q 406 782 393 794 q 432 763 419 769 m 438 718 q 436 727 438 722 q 435 733 435 732 l 203 733 l 203 718 l 438 718 z "},"T":{"ha":1133,"x_min":53,"x_max":1076,"o":"m 613 1103 q 597 1106 608 1103 q 582 1115 586 1110 l 599 1115 q 605 1109 601 1113 q 613 1103 608 1106 m 585 1103 q 569 1106 581 1103 q 554 1115 558 1110 l 569 1115 q 578 1111 575 1115 q 585 1103 581 1107 m 557 1103 q 542 1106 553 1103 q 526 1115 531 1110 l 543 1115 q 549 1109 546 1113 q 557 1103 553 1106 m 529 1103 q 514 1106 525 1103 q 499 1115 503 1110 l 515 1115 q 522 1109 518 1113 q 529 1103 525 1106 m 501 1103 q 485 1105 493 1100 q 468 1115 478 1110 l 488 1115 q 494 1109 490 1113 q 501 1103 497 1106 m 474 1103 q 460 1106 469 1101 q 440 1115 451 1111 l 460 1115 q 466 1109 463 1113 q 474 1103 469 1106 m 446 1103 q 433 1106 442 1101 q 413 1115 424 1111 l 432 1115 q 438 1109 435 1113 q 446 1103 442 1106 m 418 1103 q 405 1106 414 1101 q 385 1115 396 1111 l 404 1115 q 410 1109 407 1113 q 418 1103 414 1106 m 1076 811 l 960 811 q 972 805 963 803 q 985 807 981 807 q 958 788 976 800 q 933 776 939 776 q 924 782 932 776 q 899 781 917 788 l 894 778 l 894 878 q 860 902 879 889 q 836 915 842 915 l 507 915 q 500 908 501 913 q 496 899 499 904 l 413 899 q 401 905 407 899 q 392 917 396 911 l 53 917 l 53 1085 l 251 1085 q 246 1089 250 1086 q 238 1096 242 1092 l 833 1096 q 848 1089 839 1096 q 863 1082 857 1082 l 1076 1082 l 1076 879 l 965 879 l 963 861 l 1076 861 l 1076 811 m 390 1103 q 377 1106 386 1101 q 357 1115 368 1111 l 376 1115 q 383 1109 379 1113 q 390 1103 386 1106 m 363 1103 q 349 1104 358 1101 q 329 1115 340 1107 l 349 1115 q 355 1109 351 1113 q 363 1103 358 1106 m 335 1103 q 322 1104 331 1101 q 301 1115 313 1107 l 317 1115 q 326 1110 321 1115 q 335 1103 331 1106 m 304 1103 q 289 1107 297 1103 q 274 1115 281 1111 l 289 1115 q 297 1111 294 1115 q 304 1103 300 1107 m 879 783 l 738 783 q 732 774 735 779 q 726 763 729 768 l 599 763 q 585 758 593 763 q 568 747 576 753 l 714 747 l 714 592 l 397 592 l 397 713 l 196 713 q 219 731 206 721 q 244 751 232 742 q 267 767 257 760 q 279 774 276 774 l 361 774 q 375 776 365 774 q 393 785 385 779 l 181 785 q 179 796 181 794 l 179 793 q 175 790 179 790 q 172 792 169 790 q 172 796 175 793 l 167 792 q 165 801 167 794 q 163 811 163 807 q 159 813 161 813 q 149 814 157 814 q 127 814 142 814 q 88 814 113 814 q 101 826 93 818 q 118 840 110 833 q 135 853 126 847 q 153 857 144 858 q 155 858 156 860 q 154 863 154 857 q 150 876 154 876 q 138 876 146 876 q 116 869 129 876 q 90 851 103 861 q 67 832 78 842 q 53 819 57 822 l 53 907 l 358 907 q 376 896 364 907 q 393 885 388 885 l 519 885 q 528 894 524 889 q 539 907 532 900 l 714 907 q 724 901 719 907 q 735 896 729 896 l 836 896 q 855 885 842 896 q 879 868 868 875 l 879 783 m 732 -8 l 397 -8 l 397 126 l 436 126 q 434 131 435 131 q 433 142 433 132 q 433 176 433 151 q 435 254 433 201 q 440 257 438 257 q 446 260 443 257 q 447 279 446 267 q 449 303 447 292 q 451 326 450 315 q 451 339 451 336 q 451 350 451 342 q 449 369 450 358 q 447 390 447 379 q 446 408 446 400 q 424 414 435 415 q 397 414 413 413 l 397 579 l 713 579 l 713 311 q 719 299 713 306 q 732 285 725 292 l 732 -8 m 893 892 l 893 915 l 854 915 q 874 903 863 911 q 893 892 886 894 m 826 861 l 826 876 l 817 876 l 817 861 l 826 861 m 818 807 l 818 811 l 808 811 l 808 807 l 818 807 m 726 876 l 696 876 q 706 869 701 874 q 715 865 711 865 q 722 869 721 865 q 726 876 724 874 m 635 868 l 635 872 l 628 872 l 628 868 l 635 868 m 599 861 q 581 871 590 865 q 567 876 572 876 l 557 876 q 580 866 568 871 q 599 861 592 861 m 396 801 l 396 806 l 383 803 l 383 799 l 396 801 m 376 800 l 376 813 l 181 813 l 181 807 q 183 800 181 800 l 376 800 m 257 858 q 244 869 250 863 q 233 876 239 876 l 169 876 q 171 867 169 872 q 172 858 172 861 l 257 858 z "},"U":{"ha":1164,"x_min":54,"x_max":1099,"o":"m 1099 871 l 764 871 l 764 1074 l 1099 1074 l 1099 871 m 1099 764 q 1090 758 1094 761 q 1081 754 1086 754 l 764 754 l 764 854 l 1099 854 l 1099 764 m 640 699 l 604 699 l 604 715 l 640 715 l 640 699 m 504 699 q 495 694 497 699 q 493 683 493 689 q 494 669 493 676 q 496 658 496 663 q 494 615 496 638 q 492 568 492 593 q 488 633 492 604 q 488 651 488 635 q 490 685 489 667 q 491 719 490 704 q 493 735 492 735 q 492 725 492 732 q 504 715 493 718 l 504 699 m 1099 369 q 1094 330 1099 353 q 1083 285 1089 307 q 1070 245 1076 263 q 1063 225 1064 228 q 973 89 1026 140 q 857 9 919 38 q 729 -28 794 -19 q 604 -37 664 -37 q 586 -37 599 -37 q 528 -35 574 -36 q 494 -31 514 -33 q 456 -28 475 -29 q 424 -24 442 -26 q 394 -19 406 -22 q 369 -14 383 -17 q 344 -8 356 -11 q 291 11 319 -3 q 232 44 263 25 q 200 72 221 51 q 159 114 179 92 q 124 156 139 136 q 110 183 110 175 l 110 469 q 108 499 110 482 q 103 533 106 517 q 97 560 100 549 q 92 574 94 572 q 75 575 85 575 q 56 575 65 575 q 72 578 63 578 q 90 581 82 578 q 72 583 82 583 q 54 579 63 582 l 54 738 l 122 738 q 132 731 126 738 q 142 724 138 724 l 343 724 l 343 754 l 56 754 l 56 851 l 339 851 q 342 855 342 854 q 343 861 343 856 q 342 867 343 867 q 339 871 342 868 l 56 871 l 56 1074 l 390 1074 l 390 906 q 392 902 390 900 q 396 904 393 904 l 396 717 l 463 717 l 463 699 l 399 699 l 399 624 q 390 619 394 624 l 390 531 l 651 531 l 651 510 l 390 510 l 390 397 q 405 321 390 354 q 445 265 419 288 q 505 230 471 242 q 578 218 539 218 q 629 224 603 218 q 679 242 656 229 q 722 276 703 254 q 751 332 740 299 q 758 351 754 338 q 763 369 763 365 l 763 696 l 992 696 q 1017 716 1003 706 q 1044 738 1032 726 l 1099 738 l 1099 369 m 554 285 l 507 285 l 507 301 l 554 301 l 554 285 m 499 285 l 465 285 l 465 301 l 499 301 l 499 285 m 344 703 l 344 718 l 339 718 l 339 703 l 344 703 z "},"V":{"ha":1254,"x_min":39,"x_max":1219,"o":"m 1219 1088 l 1096 756 l 994 756 q 999 754 996 754 q 1011 754 1001 754 q 1040 754 1021 754 q 1094 754 1060 754 q 1090 740 1092 747 q 1085 726 1088 733 l 963 726 q 955 693 958 710 q 949 657 951 676 l 876 657 q 872 653 871 657 q 868 649 874 649 l 850 649 l 850 653 q 840 655 846 656 q 831 654 835 654 q 822 680 826 667 q 811 704 818 693 q 786 706 799 706 q 761 706 774 706 l 761 714 q 764 724 761 715 q 770 744 767 733 q 777 767 774 756 q 783 788 781 779 q 803 853 792 817 q 826 928 814 889 q 851 1007 839 967 q 876 1085 864 1047 q 903 1088 889 1088 q 933 1088 918 1089 q 933 1124 939 1106 l 1081 1124 l 1081 1088 l 1219 1088 m 764 625 l 736 625 q 742 646 736 635 l 757 646 q 762 635 760 642 q 764 625 764 629 m 507 713 q 507 693 507 706 q 504 674 507 681 q 506 702 504 694 q 507 713 507 710 m 499 674 l 489 683 q 494 710 492 696 q 499 735 496 724 q 497 704 499 719 q 499 674 496 689 m 518 675 l 513 675 l 513 688 l 518 688 l 518 675 m 488 735 q 486 706 488 722 q 482 674 485 689 l 478 692 q 483 715 481 703 q 488 735 485 726 m 492 761 l 465 761 q 460 710 461 735 q 456 661 458 685 l 344 661 q 340 673 344 667 q 336 686 336 679 q 343 724 339 706 q 331 760 347 742 q 320 746 322 758 q 319 726 318 733 l 175 726 l 39 1088 l 304 1121 q 309 1103 307 1113 q 315 1088 311 1094 l 388 1088 l 492 761 m 339 719 q 338 708 339 715 q 332 693 336 700 q 325 707 328 699 q 322 721 322 715 q 329 749 322 735 q 339 719 339 733 m 1036 596 l 1010 525 l 783 525 l 783 510 l 1006 510 l 813 -4 l 450 -4 q 442 19 446 7 q 432 43 439 31 q 435 14 428 32 q 444 -19 442 -4 q 434 -24 436 -21 q 433 -32 432 -28 q 437 -41 435 -36 q 439 -50 439 -46 l 439 -58 q 417 -65 428 -62 q 394 -71 406 -68 l 328 190 q 358 190 343 193 q 383 199 374 188 l 381 229 q 379 224 378 226 q 381 215 381 221 l 317 215 q 312 238 313 226 q 304 260 311 249 l 307 257 q 307 285 311 269 q 303 283 304 282 q 301 283 301 283 q 301 282 301 283 q 301 274 301 281 l 213 610 l 289 325 q 303 323 293 318 q 319 326 313 328 l 325 332 l 217 614 l 381 615 l 224 615 q 213 624 214 615 q 210 615 210 621 q 196 665 203 639 q 178 715 189 690 l 319 715 q 320 698 317 710 q 329 681 324 686 q 338 667 333 676 q 347 651 343 658 q 360 646 350 646 l 526 646 l 635 307 l 731 610 l 769 610 q 774 596 768 607 l 1036 596 m 543 503 l 543 508 l 444 511 l 444 506 l 543 503 m 563 192 l 563 218 q 524 218 542 214 l 524 443 l 428 443 q 424 367 425 406 q 419 290 424 328 l 383 290 q 385 264 386 278 q 385 238 385 250 q 388 265 382 256 q 441 267 415 265 q 494 269 467 269 q 496 231 494 250 q 497 196 497 213 l 494 192 l 563 192 m 490 194 l 490 200 l 392 203 l 392 197 l 490 194 m 374 282 l 374 286 l 319 279 l 319 275 l 374 282 m 417 86 q 408 104 413 94 q 401 121 404 114 q 405 101 403 110 q 400 86 407 92 l 417 86 m 413 75 l 413 82 l 407 82 l 407 75 l 413 75 m 415 61 l 415 68 l 410 68 l 410 61 l 415 61 m 432 44 l 432 51 l 426 51 l 426 44 l 432 44 m 418 50 l 418 57 l 413 57 l 413 50 l 418 50 m 424 25 l 424 32 l 418 32 l 418 25 l 424 25 m 426 14 l 426 21 l 421 21 l 421 14 l 426 14 m 432 -11 l 432 -4 l 426 -4 l 426 -11 l 432 -11 m 435 -22 l 435 -15 l 429 -15 l 429 -22 l 435 -22 z "},"W":{"ha":1707,"x_min":49,"x_max":1665,"o":"m 1021 944 l 615 944 l 657 1099 l 979 1099 l 1021 944 m 1665 1088 q 1659 1059 1661 1074 q 1651 1029 1657 1044 q 1615 1021 1635 1025 q 1571 1014 1594 1017 q 1565 1001 1567 1008 q 1560 986 1563 994 q 1601 988 1581 982 q 1644 997 1622 994 q 1640 978 1642 989 q 1635 960 1638 967 q 1598 951 1618 954 q 1554 943 1578 947 q 1550 931 1551 938 q 1546 915 1549 925 q 1583 917 1560 911 q 1625 926 1607 924 q 1623 908 1625 918 q 1618 889 1621 899 q 1593 882 1608 882 q 1564 881 1578 882 q 1540 872 1550 879 q 1529 846 1529 865 q 1567 848 1544 844 q 1610 854 1589 851 q 1606 836 1607 846 q 1601 815 1604 826 q 1563 810 1585 814 q 1522 803 1542 806 q 1519 794 1519 800 q 1515 782 1518 789 l 1515 775 q 1528 774 1519 772 q 1548 777 1538 775 q 1567 781 1558 779 q 1576 783 1575 783 l 1590 783 q 1586 764 1588 772 q 1582 746 1585 756 q 1547 740 1567 743 q 1508 733 1526 736 q 1503 720 1506 728 q 1499 704 1501 713 q 1512 703 1503 701 q 1531 706 1521 704 q 1549 711 1540 708 q 1558 714 1557 714 l 1574 714 l 1574 704 q 1568 680 1574 703 q 1553 618 1563 657 q 1531 530 1543 579 q 1505 428 1518 481 q 1478 324 1492 375 q 1454 229 1465 272 q 1433 223 1446 226 q 1408 217 1421 219 q 1388 142 1397 179 q 1368 67 1379 104 q 1352 42 1354 64 q 1343 -1 1350 19 l 1011 -1 l 890 428 l 746 428 l 625 -1 l 292 -1 l 236 250 q 252 255 243 254 q 269 258 261 256 q 283 264 278 260 q 289 279 289 268 l 206 642 q 186 644 196 639 q 168 658 176 649 q 154 678 160 667 q 147 697 149 689 l 147 699 l 146 699 q 143 700 143 700 l 138 700 l 85 940 l 344 940 q 351 897 347 919 q 358 851 354 875 q 417 851 388 847 l 440 728 l 372 728 l 372 697 l 446 697 l 486 489 l 528 631 l 486 631 l 486 638 l 528 638 q 536 667 532 653 q 544 697 540 682 l 753 697 l 753 728 l 633 728 q 631 708 628 719 q 627 718 628 713 q 624 728 626 724 q 621 718 621 724 q 618 708 621 713 q 617 718 618 713 q 614 728 617 724 q 610 719 611 724 q 607 711 610 714 q 606 720 607 715 q 603 728 606 725 q 599 711 599 722 q 594 728 599 722 q 591 718 592 724 q 588 708 590 713 q 587 718 588 713 q 583 728 586 724 q 580 718 581 724 q 579 708 579 713 q 576 717 576 713 q 572 728 575 722 q 569 720 569 725 q 568 711 568 715 q 566 724 569 718 q 556 728 563 731 l 556 738 q 560 754 556 742 q 565 778 564 767 q 567 803 567 789 q 568 831 568 818 q 568 813 568 822 q 571 796 568 804 q 576 807 576 801 q 576 818 576 813 q 576 828 575 824 q 583 835 576 832 l 583 844 l 486 844 l 486 857 l 1218 857 l 1265 1099 l 1304 1099 l 1251 771 l 1251 764 q 1280 757 1265 760 q 1314 750 1294 754 q 1322 797 1318 774 q 1331 844 1326 821 q 1312 849 1322 847 q 1290 853 1301 850 q 1298 894 1294 872 q 1304 938 1301 917 q 1301 943 1306 940 q 1296 950 1296 946 q 1301 966 1296 954 q 1307 985 1306 978 q 1315 1042 1311 1013 q 1319 1099 1319 1071 l 1585 1099 q 1584 1086 1586 1093 q 1579 1072 1582 1079 q 1622 1078 1600 1075 q 1665 1088 1643 1082 m 378 1043 l 233 1043 l 233 1099 l 369 1099 q 375 1071 372 1086 q 378 1043 378 1056 m 536 708 l 532 708 l 532 832 l 536 832 l 536 708 m 528 708 l 524 708 l 524 832 l 528 832 l 528 708 m 522 829 l 519 711 l 515 711 l 518 829 l 522 829 m 513 708 l 508 713 l 513 832 l 513 708 m 506 708 l 501 708 l 501 832 l 506 832 l 506 708 m 497 708 l 493 708 l 493 832 l 497 832 l 497 708 m 224 1069 q 219 1029 221 1050 q 214 989 217 1008 l 210 1024 q 215 1060 213 1042 q 219 1096 217 1079 l 224 1069 m 489 708 l 485 708 l 485 832 l 489 832 l 489 708 m 210 1072 q 205 1031 207 1053 q 200 989 203 1010 l 196 1026 q 201 1063 199 1044 q 206 1096 203 1081 l 210 1072 m 196 1072 q 191 1031 193 1053 q 186 989 189 1010 l 182 1026 q 187 1063 185 1044 q 192 1096 189 1081 l 196 1072 m 182 1075 q 177 1032 179 1054 q 172 989 175 1010 l 168 1029 q 173 1064 171 1047 q 178 1096 175 1081 l 182 1075 m 168 1075 q 163 1032 165 1054 q 158 989 161 1010 l 154 1029 q 159 1064 157 1047 q 164 1096 161 1081 l 168 1075 m 154 1078 q 149 1033 151 1057 q 144 989 147 1010 q 142 990 143 989 q 138 993 140 990 q 143 1045 140 1018 q 150 1096 146 1072 l 154 1078 m 140 1078 q 135 1033 138 1057 q 131 989 133 1010 q 128 990 129 989 q 124 993 126 990 q 129 1045 126 1018 q 136 1096 132 1072 l 140 1078 m 126 1081 q 121 1036 124 1060 q 115 989 118 1013 l 111 992 q 115 1045 111 1018 q 122 1096 118 1072 l 126 1081 m 113 1083 q 108 1039 110 1063 q 106 992 106 1015 q 101 990 103 992 q 96 989 99 989 q 101 1043 99 1015 q 108 1096 104 1071 l 113 1083 m 54 1079 l 49 1079 l 49 1096 l 54 1096 l 54 1079 m 99 1083 q 94 1041 96 1063 q 92 999 92 1019 q 88 994 89 996 q 82 989 86 992 l 82 999 q 83 1013 82 1001 q 85 1038 83 1024 q 88 1069 86 1053 q 93 1096 90 1085 l 99 1083 m 68 1083 q 67 1056 68 1069 q 63 1028 65 1042 q 63 1096 58 1061 q 68 1090 67 1093 q 68 1083 69 1086 m 83 1086 q 78 1038 81 1063 q 74 989 76 1013 q 72 1041 71 1014 q 76 1096 74 1068 q 79 1094 78 1096 q 83 1086 81 1092 m 872 254 l 769 254 l 769 268 l 872 268 l 872 254 m 1208 799 q 1211 817 1208 810 q 1208 846 1214 824 l 786 846 q 783 815 779 824 q 786 799 786 807 q 800 796 797 799 l 800 735 l 821 735 q 820 787 821 768 q 819 815 819 806 q 818 828 818 825 q 819 832 818 831 l 824 733 l 828 822 q 832 832 828 828 l 838 733 q 838 786 838 767 q 838 815 838 806 q 838 828 838 825 q 840 832 839 831 q 844 822 844 828 l 849 733 q 849 786 849 767 q 849 815 849 806 q 849 828 849 825 q 851 832 850 831 l 854 733 l 858 822 q 863 832 858 828 l 868 728 q 868 784 868 764 q 868 815 868 804 q 869 828 868 825 q 871 832 869 831 q 874 831 874 829 q 876 826 875 833 l 876 728 q 878 780 878 760 q 879 811 879 800 q 880 826 879 822 q 882 832 881 831 l 882 729 l 894 729 l 894 832 l 1033 832 l 1033 729 l 1044 729 l 1044 832 l 1106 832 l 1086 708 q 1093 685 1090 697 q 1100 661 1096 672 q 1113 662 1107 661 q 1125 660 1118 663 q 1113 657 1118 657 q 1100 657 1107 657 l 1149 489 l 1206 797 q 1144 797 1175 793 q 1177 799 1161 800 q 1208 799 1193 799 m 1225 200 q 1190 194 1206 196 q 1160 189 1175 192 l 1142 90 q 1208 90 1186 92 l 1225 200 m 886 443 l 867 514 l 769 514 q 760 478 765 497 q 750 443 754 460 l 886 443 m 814 797 l 811 743 l 807 743 l 810 797 l 814 797 m 806 743 l 801 743 l 801 797 l 806 797 l 806 743 z "},"X":{"ha":1258,"x_min":36,"x_max":1219,"o":"m 1186 1093 l 1056 885 l 814 885 l 814 779 l 986 779 q 964 743 974 763 l 299 743 q 288 761 294 751 q 278 779 282 771 l 336 779 l 336 885 l 207 885 l 69 1093 l 442 1093 l 561 886 l 535 886 l 535 779 l 592 779 l 592 829 q 610 796 601 813 q 632 763 619 779 q 638 768 636 764 q 643 776 640 772 q 649 779 644 779 q 656 782 653 779 q 656 792 657 786 q 657 801 654 797 q 738 947 697 875 q 821 1093 779 1019 l 1186 1093 m 1031 292 l 1017 292 q 1013 318 1017 306 l 1031 292 m 865 401 q 865 362 865 381 q 857 324 864 343 l 857 336 q 859 364 856 342 q 865 401 863 386 m 857 401 l 851 324 l 846 324 l 851 401 l 857 401 m 847 401 q 842 361 844 382 q 838 324 840 340 l 838 356 q 839 380 836 364 q 847 401 842 396 m 835 401 q 835 363 835 381 q 826 324 835 344 l 826 344 q 828 369 825 349 q 835 401 831 389 m 824 401 q 822 363 824 382 q 818 324 821 343 q 819 365 818 344 q 824 401 821 385 m 814 401 q 811 363 813 382 q 810 324 810 343 l 806 361 q 810 383 808 372 q 814 401 811 393 m 804 401 q 801 363 801 382 q 796 324 800 343 l 796 350 q 797 373 794 356 q 804 401 800 390 m 793 401 q 792 363 792 382 q 785 324 792 343 l 785 339 q 786 366 783 346 q 793 401 789 386 m 782 324 l 772 324 q 777 364 775 343 q 782 401 779 385 l 782 324 m 774 399 q 771 360 774 381 q 765 324 768 340 q 768 373 768 357 q 768 401 768 389 l 774 399 m 760 401 q 761 388 761 397 q 760 368 761 379 q 758 345 760 357 q 754 324 757 333 q 757 367 757 349 q 760 401 757 385 m 751 401 q 749 363 751 382 q 744 324 747 343 q 747 365 746 344 q 751 401 749 386 m 740 401 q 739 364 740 385 q 738 324 738 343 l 733 364 q 738 383 736 371 q 740 401 739 394 m 732 401 q 728 363 729 382 q 724 324 728 343 l 724 353 q 725 374 722 358 q 732 401 728 390 m 1219 4 l 843 4 l 669 285 l 956 285 q 962 250 958 268 q 969 215 965 232 l 1081 215 l 1139 126 l 975 126 l 975 104 l 1156 104 l 1219 4 m 721 401 q 721 365 722 385 q 713 324 719 344 l 713 342 q 715 367 711 346 q 721 401 718 389 m 389 582 q 383 572 386 578 q 376 563 381 567 q 367 567 372 567 q 379 585 369 574 q 389 582 382 582 m 983 363 l 872 363 l 872 435 l 703 435 l 692 290 l 665 290 q 647 322 657 306 q 626 354 638 338 l 411 4 l 36 4 l 136 156 q 133 159 133 158 q 128 160 133 160 q 119 154 124 160 q 108 147 114 149 l 107 149 q 105 149 106 149 q 103 150 104 150 q 131 200 110 164 q 178 281 151 236 q 235 376 206 326 q 290 466 264 425 q 333 533 315 507 q 356 560 351 560 q 372 551 367 560 l 314 444 q 322 440 318 440 q 326 456 321 446 q 337 477 331 465 q 349 499 343 489 q 360 518 356 510 q 365 515 363 515 q 371 513 368 515 l 411 572 l 314 721 l 947 721 l 850 567 l 983 363 m 497 779 l 497 885 l 378 885 l 378 779 l 497 779 z "},"Y":{"ha":1276,"x_min":40,"x_max":1224,"o":"m 1224 1081 l 1049 817 l 701 817 l 701 831 l 853 1081 l 1224 1081 m 1043 814 l 990 732 l 643 732 l 669 775 q 673 771 672 772 q 676 767 674 769 l 706 767 q 710 782 715 774 q 704 799 704 790 l 704 814 l 1043 814 m 496 732 l 275 732 q 262 749 268 739 q 251 767 256 758 l 271 767 l 271 872 l 178 872 l 40 1081 l 343 1081 q 331 1072 336 1075 q 318 1063 325 1069 l 407 872 l 379 872 q 376 871 376 869 q 376 867 376 872 q 378 853 376 864 q 384 826 381 842 q 392 795 388 811 q 399 767 396 779 l 431 767 q 428 805 433 782 q 419 847 422 828 q 434 808 431 828 q 440 769 438 788 q 454 767 446 767 q 471 765 463 767 q 483 749 478 758 q 496 732 489 740 m 800 218 l 796 218 l 796 281 l 800 281 l 800 218 m 789 281 q 792 253 793 274 q 783 217 790 232 q 786 253 786 238 q 789 281 786 268 m 778 281 q 780 253 783 274 q 772 217 776 232 q 775 254 775 240 q 778 281 775 268 m 771 281 q 768 248 768 268 q 761 217 768 228 l 761 238 q 763 258 760 243 q 771 281 767 272 m 760 281 q 757 249 760 265 q 750 217 754 232 l 750 240 q 752 259 749 246 q 760 281 756 272 m 749 281 q 744 249 746 265 q 739 217 743 232 l 739 243 q 741 260 738 247 q 749 281 744 272 m 974 708 l 801 446 l 801 308 l 671 308 q 665 253 667 281 q 660 196 663 225 q 656 194 658 194 q 644 193 653 193 q 617 192 635 193 q 568 190 599 192 l 800 190 l 800 -8 l 463 -8 l 463 443 l 290 708 l 513 708 l 601 581 l 696 643 l 654 708 l 974 708 m 738 281 q 733 249 735 265 q 728 217 732 232 l 728 243 q 730 260 726 249 q 738 281 733 272 m 722 217 q 719 251 719 229 q 722 281 719 272 l 722 217 m 713 278 q 711 247 713 263 q 707 217 710 232 l 707 281 l 713 278 m 703 281 q 701 249 701 265 q 697 217 700 232 l 693 249 q 698 265 696 257 q 703 281 700 274 m 689 281 q 688 248 689 264 q 688 217 688 232 q 685 218 686 217 q 679 221 682 218 q 684 252 682 236 q 689 281 686 268 m 706 607 l 701 614 l 699 613 l 701 607 l 706 607 m 703 601 l 699 608 l 696 607 l 699 601 l 703 601 m 732 564 q 719 586 725 575 q 706 606 713 597 q 705 603 706 604 q 704 600 704 601 l 704 596 l 713 590 q 710 589 710 589 q 708 588 708 589 q 710 586 708 586 q 714 581 714 585 q 717 576 714 578 q 721 574 724 579 q 718 568 718 569 q 719 565 715 567 q 726 561 724 564 q 724 565 726 564 q 725 569 722 567 l 732 564 m 700 596 l 696 603 l 693 601 l 696 596 l 700 596 m 706 588 l 701 594 l 699 593 l 701 588 l 706 588 m 711 579 l 707 586 l 704 585 l 707 579 l 711 579 m 692 599 l 688 606 l 685 604 l 688 599 l 692 599 m 697 590 l 693 597 l 690 596 l 693 590 l 697 590 m 717 571 l 713 578 l 710 576 l 713 571 l 717 571 m 703 582 l 699 589 l 696 588 l 699 582 l 703 582 m 689 593 l 685 600 l 682 599 l 685 593 l 689 593 m 708 574 l 704 581 l 701 579 l 704 574 l 708 574 m 694 585 l 690 592 l 688 590 l 690 585 l 694 585 m 714 565 l 710 572 l 707 571 l 710 565 l 714 565 m 700 576 l 696 583 l 693 582 l 696 576 l 700 576 m 719 557 l 715 564 l 713 563 l 715 557 l 719 557 m 686 588 l 682 594 l 679 593 l 682 588 l 686 588 m 706 568 l 701 575 l 699 574 l 701 568 l 706 568 m 692 579 l 688 586 l 685 585 l 688 579 l 692 579 m 711 560 l 707 567 l 704 565 l 707 560 l 711 560 m 678 590 l 674 597 l 671 596 l 674 590 l 678 590 m 697 571 l 693 578 l 690 576 l 693 571 l 697 571 m 703 563 l 699 569 l 696 568 l 699 563 l 703 563 m 708 554 l 704 561 l 701 560 l 704 554 l 708 554 m 704 547 q 699 553 701 551 q 696 557 696 554 q 693 562 696 561 q 690 565 690 563 q 688 570 690 569 q 685 574 685 571 q 683 578 686 578 q 679 582 679 579 q 681 585 679 585 q 679 586 682 586 l 676 586 l 671 592 q 665 589 667 592 q 664 583 664 586 l 669 586 l 674 582 q 671 578 669 579 q 669 576 672 578 q 667 575 667 578 q 672 572 668 572 l 676 568 q 673 563 669 564 q 679 560 676 563 q 678 556 676 557 q 678 554 681 556 q 676 553 675 556 q 681 550 676 550 l 685 546 q 684 542 681 543 q 690 539 688 542 q 688 543 690 542 q 689 547 686 544 l 694 542 q 700 547 699 544 q 704 547 701 550 m 667 579 l 663 586 l 660 585 l 663 579 l 667 579 m 664 574 l 660 581 l 657 579 l 660 574 l 664 574 m 669 565 l 665 572 l 663 571 l 665 565 l 669 565 m 675 557 l 671 564 l 668 563 l 671 557 l 675 557 m 661 568 l 657 575 l 654 574 l 657 568 l 661 568 m 667 560 l 663 567 l 660 565 l 663 560 l 667 560 m 672 551 l 668 558 l 665 557 l 668 551 l 672 551 m 678 543 l 674 550 l 671 549 l 674 543 l 678 543 m 683 535 l 679 542 l 676 540 l 679 535 l 683 535 m 385 767 q 376 826 381 801 q 368 872 372 851 l 331 872 l 350 767 l 385 767 z "},"Z":{"ha":1142,"x_min":47,"x_max":1079,"o":"m 821 1104 q 804 1108 814 1100 q 786 1128 794 1117 l 799 1128 l 821 1104 m 790 1104 q 772 1111 783 1101 q 756 1128 760 1121 l 771 1128 q 781 1118 775 1125 q 790 1104 786 1111 m 763 1104 q 744 1109 754 1101 q 728 1128 733 1117 l 740 1128 l 763 1104 m 732 1104 q 711 1110 719 1100 q 697 1128 703 1121 l 713 1128 q 721 1118 717 1125 q 732 1104 725 1111 m 701 1104 l 686 1104 q 678 1114 682 1107 q 667 1128 674 1121 l 682 1128 q 692 1118 686 1125 q 701 1104 697 1111 m 674 1104 q 653 1110 663 1099 q 639 1128 644 1121 l 654 1128 q 663 1118 658 1125 q 674 1104 667 1111 m 643 1104 l 628 1104 q 619 1114 624 1107 q 608 1128 615 1121 l 624 1128 q 633 1118 628 1125 q 643 1104 639 1111 m 615 1104 q 599 1108 608 1100 q 581 1128 589 1117 l 593 1128 l 615 1104 m 1079 -1 l 47 -1 l 47 67 l 153 67 q 172 131 164 99 q 189 194 181 163 q 203 194 196 194 q 218 197 211 194 l 47 197 l 47 225 l 482 681 q 478 683 479 683 q 475 682 478 682 l 475 697 q 485 700 479 700 q 495 700 490 700 q 506 703 500 700 q 517 714 511 706 l 664 714 q 667 726 667 721 q 661 738 668 731 l 539 738 q 554 755 547 746 q 568 772 561 764 q 564 774 567 774 q 551 774 561 774 q 522 774 542 774 q 465 774 501 774 q 465 800 467 786 q 465 828 464 814 l 246 828 q 272 831 257 831 q 300 829 288 832 l 300 856 l 106 856 l 106 1089 l 289 1089 q 258 1115 275 1103 l 258 1224 l 364 1139 l 540 1139 q 565 1117 553 1128 q 590 1092 578 1106 l 1057 1092 l 1057 872 l 768 872 l 768 832 l 817 829 q 804 828 810 829 q 797 803 800 818 q 793 783 793 789 l 793 771 l 960 771 q 947 755 953 764 q 932 738 940 746 l 790 738 q 788 733 788 735 q 785 729 788 732 l 785 715 l 907 715 q 703 499 807 610 q 507 296 599 389 q 501 296 506 296 q 493 294 497 296 q 448 275 474 278 q 396 274 422 272 q 394 270 394 272 q 393 261 393 268 q 393 240 393 254 q 393 203 393 226 q 413 196 401 199 q 429 192 424 193 l 542 192 q 543 193 543 192 q 542 197 543 196 q 551 192 546 194 q 563 190 557 190 l 778 190 q 804 192 783 190 q 842 196 825 193 q 844 213 844 203 q 844 231 844 222 l 1079 231 l 1079 -1 m 649 856 l 500 856 q 500 842 500 849 q 503 832 500 835 l 629 832 q 640 845 636 839 q 649 856 644 851 z "},"]":{"ha":1389,"x_min":0,"x_max":0,"o":""},"a":{"ha":1389,"x_min":0,"x_max":0,"o":""},"b":{"ha":1389,"x_min":0,"x_max":0,"o":""},"c":{"ha":1389,"x_min":0,"x_max":0,"o":""},"d":{"ha":1389,"x_min":0,"x_max":0,"o":""},"e":{"ha":1389,"x_min":0,"x_max":0,"o":""},"f":{"ha":1389,"x_min":0,"x_max":0,"o":""},"g":{"ha":1389,"x_min":0,"x_max":0,"o":""},"h":{"ha":1389,"x_min":0,"x_max":0,"o":""},"i":{"ha":1389,"x_min":0,"x_max":0,"o":""},"j":{"ha":1389,"x_min":0,"x_max":0,"o":""},"k":{"ha":1389,"x_min":0,"x_max":0,"o":""},"l":{"ha":1389,"x_min":0,"x_max":0,"o":""},"m":{"ha":1389,"x_min":0,"x_max":0,"o":""},"n":{"ha":1389,"x_min":0,"x_max":0,"o":""},"o":{"ha":1389,"x_min":0,"x_max":0,"o":""},"p":{"ha":1389,"x_min":0,"x_max":0,"o":""},"q":{"ha":1389,"x_min":0,"x_max":0,"o":""},"r":{"ha":1389,"x_min":0,"x_max":0,"o":""},"s":{"ha":1389,"x_min":0,"x_max":0,"o":""},"t":{"ha":1389,"x_min":0,"x_max":0,"o":""},"u":{"ha":1389,"x_min":0,"x_max":0,"o":""},"v":{"ha":1389,"x_min":0,"x_max":0,"o":""},"w":{"ha":1389,"x_min":0,"x_max":0,"o":""},"x":{"ha":1389,"x_min":0,"x_max":0,"o":""},"y":{"ha":1389,"x_min":0,"x_max":0,"o":""},"z":{"ha":1389,"x_min":0,"x_max":0,"o":""},"{":{"ha":1389,"x_min":0,"x_max":0,"o":""},"":{"ha":1389,"x_min":0,"x_max":0,"o":""},"":{"ha":447,"x_min":88,"x_max":361,"o":"m 361 664 l 88 664 l 88 1063 l 121 1063 q 122 1013 121 1038 q 128 963 124 988 l 236 963 q 240 896 239 931 q 246 838 240 861 l 307 838 q 315 950 311 894 q 322 1061 318 1006 q 326 1062 324 1063 q 331 1067 329 1061 l 144 1067 q 143 1081 144 1071 q 142 1117 142 1092 l 361 1117 l 361 664 m 229 806 l 229 838 l 128 838 l 128 806 l 229 806 z "}}}
